<?xml version="1.0" encoding="UTF-8"?>
<svg width="1826px" height="383px" viewBox="0 0 1826 383" version="1.1" xmlns="http://www.w3.org/2000/svg" xmlns:xlink="http://www.w3.org/1999/xlink">
    <!-- Generator: Sketch 50.2 (55047) - http://www.bohemiancoding.com/sketch -->
    <title>Group</title>
    <desc>Created with Sketch.</desc>
    <defs>
        <polygon id="path-1" points="0.0001340095 0.931 383.056022 0.931 383.056022 383.9996 0.0001340095 383.9996"></polygon>
    </defs>
    <g id="Page-1" stroke="none" stroke-width="1" fill="none" fill-rule="evenodd">
        <g id="Artboard-1">
            <g id="Group" transform="translate(0.000000, -1.000000)">
                <g id="Group-3" transform="translate(0.000000, 0.069000)">
                    <mask id="mask-2" fill="white">
                        <use xlink:href="#path-1"></use>
                    </mask>
                    <g id="Clip-2"></g>
                    <path d="M293.4768,325.3366 C293.0628,325.6556 292.6468,325.9716 292.2308,326.2856 C286.8428,330.3236 281.1818,334.0676 275.2598,337.4866 C269.0228,341.0876 262.6178,344.2526 256.0848,346.9976 C255.6998,347.1576 255.3178,347.3226 254.9308,347.4806 C254.3968,347.6996 253.8588,347.9026 253.3238,348.1166 C247.3358,350.4816 241.1818,352.5256 234.8708,354.2166 C228.2768,355.9836 221.6378,357.3376 214.9838,358.2916 C214.4278,358.3696 213.8718,358.4456 213.3138,358.5176 C212.8268,358.5826 212.3388,358.6446 211.8508,358.7046 C205.1578,359.5096 198.3748,359.9226 191.5278,359.9226 C185.0348,359.9226 178.6008,359.5436 172.2438,358.8196 C171.6338,358.7476 171.0238,358.6876 170.4138,358.6086 C170.0298,358.5616 169.6478,358.5036 169.2648,358.4536 C162.2108,357.4926 155.1718,356.0886 148.1848,354.2166 C141.5818,352.4466 135.1468,350.2966 128.8988,347.7926 C128.4088,347.5936 127.9178,347.3936 127.4298,347.1896 C126.9448,346.9896 126.4628,346.7876 125.9798,346.5836 C119.7898,343.9366 113.7178,340.9056 107.7958,337.4866 C101.5588,333.8856 95.6138,329.9206 89.9698,325.6346 C89.6408,325.3826 89.3078,325.1346 88.9788,324.8796 C88.5168,324.5236 88.0658,324.1536 87.6078,323.7926 C82.5718,319.7926 77.7278,315.4886 73.1128,310.8736 C68.2808,306.0416 63.7848,300.9636 59.6268,295.6726 C59.2968,295.2476 58.9668,294.8226 58.6398,294.3956 C58.3258,293.9876 58.0158,293.5786 57.7058,293.1686 C53.6658,287.7786 49.9208,282.1156 46.5008,276.1906 C43.2458,270.5536 40.3488,264.7756 37.7928,258.8926 C37.5588,258.3476 37.3138,257.8076 37.0848,257.2586 C36.9318,256.8946 36.7858,256.5256 36.6348,256.1596 C33.9428,249.5756 31.6408,242.7826 29.7698,235.8016 C28.0008,229.1976 26.6448,222.5486 25.6908,215.8846 C25.6178,215.3636 25.5468,214.8426 25.4788,214.3196 C25.4088,213.7976 25.3428,213.2746 25.2778,212.7536 C24.4758,206.0686 24.0638,199.2956 24.0638,192.4596 C24.0638,185.2516 24.5258,178.1156 25.4168,171.0806 C25.4698,170.6766 25.5168,170.2736 25.5718,169.8696 C25.6508,169.2776 25.7478,168.6896 25.8328,168.0996 C26.7798,161.7476 28.0828,155.4116 29.7698,149.1156 C31.5358,142.5246 33.6818,136.1016 36.1808,129.8646 C36.3958,129.3336 36.6118,128.8036 36.8328,128.2746 C37.0158,127.8306 37.2018,127.3876 37.3888,126.9456 C40.0398,120.7436 43.0748,114.6596 46.4998,108.7276 C49.7418,103.1126 53.2808,97.7366 57.0808,92.6006 C57.4548,92.0986 57.8188,91.5906 58.1998,91.0926 C58.4298,90.7886 58.6658,90.4916 58.8978,90.1896 C63.2588,84.5576 67.9958,79.1616 73.1138,74.0446 C77.9508,69.2066 83.0348,64.7056 88.3318,60.5446 C88.7348,60.2306 89.1388,59.9176 89.5448,59.6066 C89.9748,59.2756 90.4068,58.9476 90.8388,58.6216 C96.2228,54.5876 101.8788,50.8466 107.7958,47.4306 C114.0328,43.8306 120.4378,40.6656 126.9708,37.9196 C127.3558,37.7606 127.7378,37.5946 128.1238,37.4376 C128.6628,37.2166 129.2048,37.0116 129.7448,36.7956 C135.7278,34.4346 141.8788,32.3916 148.1858,30.7016 C154.7818,28.9336 161.4228,27.5796 168.0798,26.6246 C168.6278,26.5486 169.1778,26.4726 169.7278,26.4016 C170.2218,26.3366 170.7148,26.2736 171.2078,26.2116 C177.8998,25.4076 184.6818,24.9956 191.5278,24.9956 C198.0458,24.9956 204.5058,25.3766 210.8868,26.1066 C211.4658,26.1746 212.0448,26.2326 212.6238,26.3066 C213.0228,26.3566 213.4198,26.4156 213.8178,26.4686 C220.8628,27.4286 227.8928,28.8316 234.8718,30.7016 C241.4788,32.4716 247.9178,34.6236 254.1698,37.1306 C254.6458,37.3236 255.1218,37.5186 255.5968,37.7156 C256.0948,37.9206 256.5908,38.1296 257.0858,38.3386 C263.2728,40.9846 269.3418,44.0136 275.2598,47.4306 C281.4958,51.0306 287.4388,54.9946 293.0808,59.2796 C293.4138,59.5336 293.7498,59.7836 294.0808,60.0406 C294.5368,60.3926 294.9808,60.7556 295.4328,61.1116 C300.4738,65.1156 305.3228,69.4236 309.9428,74.0436 C314.7668,78.8676 319.2558,83.9366 323.4068,89.2176 C323.7618,89.6726 324.1158,90.1286 324.4658,90.5876 C324.7568,90.9656 325.0448,91.3446 325.3318,91.7246 C329.3788,97.1226 333.1298,102.7936 336.5558,108.7276 C339.8048,114.3556 342.6968,120.1226 345.2498,125.9946 C345.4898,126.5526 345.7398,127.1046 345.9738,127.6656 C346.1248,128.0256 346.2688,128.3876 346.4168,128.7486 C349.1108,135.3356 351.4138,142.1316 353.2858,149.1166 C355.0558,155.7236 356.4118,162.3756 357.3668,169.0426 C357.4378,169.5536 357.5078,170.0636 357.5738,170.5756 C357.6448,171.1076 357.7128,171.6406 357.7788,172.1736 C358.5808,178.8556 358.9918,185.6256 358.9918,192.4586 C358.9918,199.6556 358.5308,206.7796 357.6428,213.8056 C357.5878,214.2276 357.5388,214.6486 357.4808,215.0706 C357.4058,215.6296 357.3148,216.1836 357.2338,216.7406 C356.2868,223.1176 354.9788,229.4816 353.2858,235.8026 C351.5168,242.4016 349.3678,248.8346 346.8648,255.0786 C346.6608,255.5816 346.4558,256.0846 346.2468,256.5856 C346.0528,257.0556 345.8558,257.5236 345.6588,257.9916 C343.0098,264.1876 339.9768,270.2646 336.5558,276.1906 C333.2908,281.8446 329.7258,287.2556 325.8958,292.4246 C325.5548,292.8816 325.2228,293.3446 324.8768,293.7986 C324.6298,294.1236 324.3768,294.4426 324.1288,294.7666 C319.7758,300.3836 315.0488,305.7686 309.9428,310.8736 C305.1088,315.7076 300.0298,320.2046 294.7378,324.3626 C294.3188,324.6896 293.8988,325.0146 293.4768,325.3366 M328.9488,325.8806 C328.9878,325.8406 329.0248,325.8006 329.0638,325.7616 C339.3398,315.1906 348.3288,303.4766 355.8798,290.8156 C355.9108,290.7636 355.9428,290.7116 355.9738,290.6596 C356.4518,289.8566 356.9218,289.0466 357.3888,288.2346 C357.8648,287.4116 358.3388,286.5886 358.8028,285.7596 C358.8258,285.7186 358.8478,285.6776 358.8708,285.6366 C366.0678,272.7556 371.7228,259.1036 375.7418,244.9056 C375.7558,244.8576 375.7698,244.8116 375.7838,244.7636 C376.0408,243.8526 376.2878,242.9386 376.5308,242.0226 C376.7758,241.1156 377.0168,240.2086 377.2478,239.2986 C377.2618,239.2416 377.2758,239.1856 377.2898,239.1286 C380.9048,224.8306 382.8318,210.1876 383.0398,195.4406 C383.0398,195.3916 383.0408,195.3426 383.0418,195.2936 C383.0548,194.3466 383.0568,193.3996 383.0558,192.4516 C383.0568,191.5116 383.0548,190.5726 383.0418,189.6336 C383.0408,189.5756 383.0398,189.5186 383.0388,189.4616 C382.8308,174.7336 380.9058,160.1076 377.2988,145.8256 C377.2798,145.7496 377.2608,145.6736 377.2418,145.5976 C377.0168,144.7086 376.7808,143.8206 376.5418,142.9346 C376.2928,141.9976 376.0398,141.0626 375.7768,140.1306 C375.7688,140.1046 375.7618,140.0776 375.7538,140.0516 C371.4998,125.0146 365.4108,110.5886 357.5988,97.0426 C357.4798,96.8366 357.3708,96.6246 357.2518,96.4186 C357.0398,96.0526 356.8138,95.6966 356.6008,95.3316 C356.1718,94.6076 355.7398,93.8846 355.3018,93.1656 C348.0478,81.1616 339.4968,70.0226 329.7748,59.9116 C329.1948,59.3046 328.6098,58.7016 328.0218,58.1026 C327.5508,57.6246 327.0808,57.1446 326.6038,56.6706 C315.5768,45.6666 303.2628,36.0876 289.8918,28.1116 C289.8358,28.0786 289.7798,28.0446 289.7238,28.0106 C288.9248,27.5346 288.1208,27.0686 287.3138,26.6046 C286.4858,26.1246 285.6558,25.6476 284.8198,25.1796 C284.7868,25.1616 284.7528,25.1426 284.7198,25.1246 C271.8408,17.9266 258.1898,12.2706 243.9948,8.2506 C243.9368,8.2336 243.8788,8.2166 243.8218,8.2006 C242.9188,7.9456 242.0148,7.7016 241.1078,7.4596 C240.1928,7.2126 239.2768,6.9696 238.3598,6.7366 C238.3098,6.7246 238.2608,6.7126 238.2108,6.7006 C223.9068,3.0836 209.2568,1.1546 194.5038,0.9476 C194.4578,0.9466 194.4118,0.9446 194.3658,0.9446 C193.4138,0.9316 192.4628,0.9296 191.5108,0.9316 C190.5768,0.9296 189.6428,0.9316 188.7088,0.9436 C188.6458,0.9456 188.5828,0.9466 188.5198,0.9476 C173.7758,1.1576 159.1348,3.0866 144.8388,6.7016 C144.7928,6.7136 144.7458,6.7246 144.6988,6.7366 C143.7798,6.9696 142.8628,7.2126 141.9468,7.4606 C141.0408,7.7016 140.1358,7.9456 139.2328,8.2006 C139.1768,8.2166 139.1198,8.2336 139.0628,8.2506 C124.8828,12.2666 111.2458,17.9146 98.3788,25.1016 C98.3228,25.1316 98.2668,25.1626 98.2108,25.1936 C97.3968,25.6496 96.5878,26.1136 95.7808,26.5826 C94.9548,27.0576 94.1298,27.5356 93.3118,28.0226 C93.2728,28.0446 93.2358,28.0686 93.1978,28.0916 C80.5318,35.6436 68.8138,44.6326 58.2398,54.9096 C58.1928,54.9556 58.1448,55.0016 58.0978,55.0466 C57.4318,55.6946 56.7738,56.3506 56.1178,57.0086 C55.4378,57.6856 54.7618,58.3646 54.0928,59.0516 L54.0168,59.1306 C43.1248,70.3316 33.6798,82.8156 25.8568,96.3516 C25.7378,96.5546 25.6108,96.7536 25.4928,96.9586 C25.2838,97.3206 25.0898,97.6916 24.8828,98.0556 C24.4658,98.7946 24.0528,99.5376 23.6448,100.2826 C16.8828,112.5576 11.5148,125.5226 7.6218,138.9856 C7.3808,139.8076 7.1468,140.6296 6.9178,141.4546 C6.7438,142.0896 6.5658,142.7236 6.3978,143.3616 C2.3788,158.4166 0.2388,173.8736 0.0178,189.4446 C0.0168,189.5116 0.0148,189.5776 0.0138,189.6446 C0.0008,190.5736 -0.0012,191.5026 0.0008,192.4326 C-0.0012,193.3906 0.0008,194.3486 0.0138,195.3056 C0.0148,195.3436 0.0158,195.3816 0.0158,195.4196 C0.2228,210.1806 2.1518,224.8396 5.7708,239.1496 C5.7828,239.1956 5.7938,239.2406 5.8048,239.2866 C6.0388,240.2076 6.2828,241.1276 6.5308,242.0466 C6.7708,242.9486 7.0148,243.8506 7.2688,244.7486 C7.2858,244.8106 7.3038,244.8716 7.3218,244.9326 C11.3388,259.1156 16.9898,272.7556 24.1788,285.6236 C24.2048,285.6716 24.2308,285.7186 24.2568,285.7666 C24.7168,286.5886 25.1868,287.4046 25.6598,288.2206 C26.1298,289.0396 26.6038,289.8566 27.0868,290.6676 C27.1138,290.7126 27.1418,290.7576 27.1678,290.8026 C34.7208,303.4666 43.7098,315.1836 53.9878,325.7566 C54.0288,325.7986 54.0698,325.8416 54.1108,325.8846 C54.7648,326.5556 55.4268,327.2206 56.0908,327.8826 C56.7608,328.5546 57.4328,329.2236 58.1118,329.8846 C58.1458,329.9186 58.1818,329.9516 58.2158,329.9846 C68.7918,340.2676 80.5118,349.2606 93.1798,356.8156 C93.2268,356.8446 93.2748,356.8736 93.3218,356.9016 C94.1318,357.3836 94.9478,357.8566 95.7648,358.3266 C96.5798,358.7996 97.3968,359.2686 98.2188,359.7296 C98.2678,359.7556 98.3168,359.7826 98.3658,359.8106 C111.2348,366.9986 124.8748,372.6496 139.0588,376.6666 C139.1178,376.6836 139.1768,376.7006 139.2368,376.7186 C140.1358,376.9716 141.0388,377.2156 141.9418,377.4566 C142.8608,377.7036 143.7798,377.9476 144.7018,378.1826 C144.7458,378.1926 144.7908,378.2036 144.8348,378.2146 C159.9718,382.0436 175.4978,383.9806 191.1208,383.9876 C191.3598,383.9886 191.6008,383.9996 191.8398,383.9996 C192.2638,383.9996 192.6878,383.9826 193.1118,383.9796 C193.9498,383.9706 194.7878,383.9576 195.6248,383.9386 C209.6438,383.6576 223.5628,381.8236 237.1768,378.4626 C238.0058,378.2606 238.8328,378.0516 239.6588,377.8386 C240.2978,377.6716 240.9368,377.5086 241.5748,377.3346 C256.6308,373.2846 271.0948,367.4046 284.6978,359.8056 C284.7428,359.7806 284.7878,359.7556 284.8328,359.7316 C285.6578,359.2696 286.4768,358.7986 287.2948,358.3246 C288.1108,357.8556 288.9258,357.3826 289.7348,356.9006 C289.7808,356.8726 289.8268,356.8456 289.8728,356.8166 C302.5388,349.2646 314.2568,340.2736 324.8308,329.9936 C324.8708,329.9556 324.9108,329.9176 324.9498,329.8796 C325.6248,329.2226 326.2928,328.5576 326.9588,327.8896 C327.6268,327.2236 328.2918,326.5556 328.9488,325.8806" id="Fill-1" fill="#C12127" mask="url(#mask-2)"></path>
                </g>
                <path d="M209.4148,223.8949 C201.8408,228.2679 193.1518,229.7649 184.6428,228.2319 C177.6708,226.8099 171.2638,223.3859 166.1178,218.2409 C163.8048,215.9269 161.8398,213.3609 160.2468,210.6029 C157.0698,205.1009 155.3768,198.8349 155.3778,192.3119 C155.3768,183.5699 158.4228,175.2989 164.0008,168.6979 C168.7188,163.3669 174.8908,159.5279 181.9228,157.6429 C185.0828,156.7969 188.2888,156.3779 191.4728,156.3779 C197.8268,156.3779 204.0988,158.0439 209.7478,161.3059 C217.3208,165.6779 222.9608,172.4529 225.8888,180.5869 C228.1438,187.3359 228.3838,194.5979 226.4998,201.6289 C225.6528,204.7889 224.4128,207.7739 222.8208,210.5329 C219.6438,216.0349 215.0638,220.6329 209.4148,223.8949 M280.5738,295.6439 C280.7928,295.5689 281.0098,295.4929 281.2278,295.4159 C281.8668,295.1939 282.5008,294.9639 283.1288,294.7299 C283.3328,294.6539 283.5368,294.5779 283.7398,294.4989 C284.4128,294.2429 285.0788,293.9779 285.7378,293.7069 C285.8788,293.6489 286.0198,293.5929 286.1608,293.5349 C288.6188,292.5099 290.9828,291.3889 293.2488,290.1769 C293.3378,290.1289 293.4258,290.0809 293.5148,290.0329 C294.1698,289.6779 294.8178,289.3169 295.4568,288.9469 C295.5788,288.8759 295.6998,288.8049 295.8218,288.7339 C296.4408,288.3709 297.0528,287.9999 297.6558,287.6229 C297.7608,287.5569 297.8658,287.4929 297.9708,287.4259 C298.6328,287.0059 299.2868,286.5799 299.9288,286.1419 C299.9518,286.1259 299.9758,286.1129 299.9978,286.0969 L299.9978,286.0959 C307.9258,280.6919 314.3168,273.9609 318.8808,266.0549 C325.5888,254.4369 328.2108,240.2889 326.4638,225.1389 L324.9528,212.0339 C324.9528,212.0339 322.2278,220.4489 315.8968,224.9509 C310.2688,229.1669 304.8838,231.7619 299.9978,233.2999 C299.5558,233.4399 299.1318,233.5429 298.6988,233.6659 C298.0528,233.8469 297.4108,234.0229 296.7848,234.1689 C296.5878,234.2159 296.3968,234.2519 296.2028,234.2949 C295.5508,234.4389 294.9038,234.5749 294.2748,234.6829 C294.1118,234.7109 293.9548,234.7309 293.7928,234.7559 C293.1518,234.8599 292.5168,234.9559 291.9018,235.0259 C291.7538,235.0419 291.6138,235.0509 291.4668,235.0669 C290.8558,235.1299 290.2508,235.1859 289.6688,235.2209 C289.5148,235.2299 289.3698,235.2309 289.2168,235.2379 C288.6598,235.2649 288.1078,235.2879 287.5808,235.2909 C287.3898,235.2919 287.2128,235.2839 287.0258,235.2829 C286.5568,235.2789 286.0858,235.2749 285.6428,235.2549 C285.3618,235.2439 285.1048,235.2199 284.8358,235.2029 C284.5228,235.1819 284.2008,235.1659 283.9038,235.1379 C283.8728,235.1359 283.8428,235.1329 283.8118,235.1299 C283.3508,235.0869 282.9158,235.0339 282.4928,234.9779 C282.4188,234.9679 282.3348,234.9609 282.2618,234.9519 C282.2508,234.9499 282.2398,234.9489 282.2288,234.9479 C283.5528,227.4579 285.4508,211.2649 284.3368,183.3349 C284.2638,181.4729 284.1758,179.5589 284.0738,177.5919 C283.9008,174.2589 283.5758,170.6799 283.1298,166.9129 C283.0588,166.3109 282.9978,165.7269 282.9198,165.1139 C282.8648,164.6779 282.7948,164.2199 282.7358,163.7789 C282.5938,162.7179 282.4538,161.6609 282.2908,160.5699 C282.2468,160.2699 282.1918,159.9559 282.1458,159.6529 C281.9548,158.3969 281.7588,157.1359 281.5408,155.8399 C281.5128,155.6699 281.4778,155.4909 281.4488,155.3199 C281.2048,153.8789 280.9488,152.4229 280.6718,150.9359 C280.6158,150.6319 280.5498,150.3149 280.4918,150.0099 C280.2318,148.6389 279.9688,147.2609 279.6828,145.8519 C279.6218,145.5559 279.5528,145.2469 279.4918,144.9489 C279.1988,143.5229 278.8998,142.0899 278.5798,140.6259 L278.5788,140.6209 C278.5768,140.6099 278.5748,140.6009 278.5718,140.5899 L278.3638,139.8859 L278.3498,139.8359 C278.3468,139.8259 278.3438,139.8159 278.3418,139.8069 C277.8838,137.9379 277.3918,136.0909 276.8838,134.2539 C276.7558,133.7899 276.6258,133.3269 276.4948,132.8639 C275.9748,131.0339 275.4388,129.2139 274.8718,127.4179 C274.8518,127.3559 274.8308,127.2959 274.8108,127.2349 C274.4068,125.9599 273.9928,124.6939 273.5648,123.4379 C273.4068,122.9729 273.2378,122.5169 273.0758,122.0539 C272.9208,121.6109 272.7658,121.1689 272.6078,120.7279 C271.9808,118.9779 271.3388,117.2409 270.6658,115.5309 C270.6378,115.4569 270.6068,115.3849 270.5778,115.3119 C269.9218,113.6489 269.2388,112.0129 268.5408,110.3909 C268.3758,110.0069 268.2098,109.6239 268.0428,109.2439 C267.3038,107.5599 266.5488,105.8919 265.7658,104.2559 C265.7468,104.2159 265.7268,104.1779 265.7068,104.1379 C264.9348,102.5269 264.1348,100.9479 263.3208,99.3869 C263.1578,99.0739 262.9948,98.7609 262.8298,98.4499 C261.9788,96.8459 261.1118,95.2619 260.2178,93.7139 C260.2158,93.7089 260.2128,93.7059 260.2108,93.7019 C260.1648,93.6229 260.1178,93.5469 260.0718,93.4679 C258.2028,90.2439 256.2448,87.1409 254.1968,84.1809 C254.1258,84.0779 254.0518,83.9799 253.9808,83.8769 C253.3588,82.9839 252.7328,82.0979 252.0948,81.2299 C252.0888,81.2219 252.0818,81.2129 252.0748,81.2039 C252.0718,81.1999 252.0688,81.1949 252.0658,81.1909 C252.0398,81.1559 252.0138,81.1229 251.9888,81.0879 C251.4328,80.3339 250.8708,79.5919 250.3048,78.8589 C250.1618,78.6739 250.0158,78.4929 249.8718,78.3089 C249.4188,77.7289 248.9638,77.1549 248.5048,76.5899 C248.3118,76.3529 248.1178,76.1189 247.9238,75.8839 C247.5018,75.3739 247.0788,74.8679 246.6518,74.3699 C246.4488,74.1319 246.2458,73.8949 246.0408,73.6609 C245.6048,73.1589 245.1658,72.6659 244.7248,72.1759 C244.5378,71.9689 244.3508,71.7589 244.1628,71.5529 C243.6428,70.9869 243.1208,70.4299 242.5948,69.8809 C242.4868,69.7679 242.3798,69.6519 242.2708,69.5399 C240.9698,68.1909 239.6488,66.8979 238.3108,65.6579 C238.1698,65.5279 238.0278,65.4009 237.8868,65.2719 C237.3628,64.7909 236.8358,64.3179 236.3058,63.8539 C236.1318,63.7019 235.9568,63.5529 235.7828,63.4019 C235.2688,62.9589 234.7528,62.5239 234.2348,62.0969 C234.0678,61.9589 233.9008,61.8209 233.7328,61.6859 C233.1718,61.2299 232.6078,60.7839 232.0418,60.3469 C231.9238,60.2559 231.8068,60.1629 231.6878,60.0719 C229.5698,58.4549 227.4168,56.9669 225.2328,55.6099 C225.1478,55.5569 225.0618,55.5059 224.9778,55.4539 C224.3428,55.0619 223.7058,54.6829 223.0648,54.3139 C222.9428,54.2429 222.8198,54.1729 222.6968,54.1029 C222.0738,53.7489 221.4478,53.4059 220.8208,53.0719 C220.7098,53.0139 220.5998,52.9539 220.4898,52.8959 C219.7948,52.5319 219.0978,52.1799 218.3978,51.8419 C218.3738,51.8299 218.3508,51.8169 218.3268,51.8059 L218.3258,51.8059 C209.6818,47.6429 200.6568,45.4729 191.5278,45.4729 C178.1118,45.4739 164.5488,50.2769 152.3018,59.3639 L141.7078,67.2259 C141.7078,67.2259 150.3588,65.3779 157.4218,68.6099 C164.2368,71.5249 169.3448,75.1079 173.1918,78.7679 C175.8098,81.2569 177.8378,83.7809 179.4078,86.1559 C179.4548,86.2279 179.4988,86.2979 179.5448,86.3689 C179.8668,86.8619 180.1678,87.3479 180.4508,87.8269 C180.5208,87.9449 180.5908,88.0639 180.6588,88.1819 C180.9038,88.6069 181.1318,89.0229 181.3488,89.4319 C181.4218,89.5699 181.4978,89.7099 181.5678,89.8459 C181.7668,90.2339 181.9488,90.6099 182.1228,90.9809 C182.1858,91.1129 182.2538,91.2489 182.3118,91.3789 C182.5218,91.8379 182.7148,92.2839 182.8888,92.7099 C182.8958,92.7289 182.9058,92.7499 182.9138,92.7689 C175.7668,95.3669 160.7928,101.8199 137.1618,116.7489 C135.5858,117.7449 133.9728,118.7769 132.3198,119.8489 C130.4808,121.0409 128.5778,122.3549 126.6348,123.7449 C126.2898,123.9909 125.9538,124.2199 125.6058,124.4729 C125.4818,124.5619 125.3528,124.6629 125.2278,124.7529 C118.4078,129.7309 110.9828,135.8659 103.0528,143.0899 L103.0468,143.0959 C103.0398,143.1029 103.0338,143.1079 103.0268,143.1149 L102.5868,143.5769 L102.4838,143.6849 C101.5358,144.5929 100.6038,145.5099 99.6798,146.4309 C99.5868,146.5229 99.4908,146.6139 99.3978,146.7069 C99.2398,146.8659 99.0868,147.0269 98.9298,147.1859 C98.2328,147.8879 97.5428,148.5929 96.8598,149.3019 C96.7078,149.4599 96.5508,149.6149 96.3998,149.7729 C96.3048,149.8729 96.2138,149.9739 96.1198,150.0729 C95.2398,150.9959 94.3698,151.9219 93.5148,152.8559 C93.5068,152.8639 93.4998,152.8719 93.4928,152.8799 C93.4908,152.8819 93.4898,152.8829 93.4878,152.8849 C92.6178,153.8359 91.7638,154.7939 90.9188,155.7549 C90.6908,156.0149 90.4668,156.2749 90.2418,156.5349 C89.6158,157.2549 88.9968,157.9779 88.3858,158.7039 C88.1478,158.9869 87.9088,159.2699 87.6728,159.5529 C86.9498,160.4229 86.2358,161.2959 85.5338,162.1729 C85.4548,162.2719 85.3728,162.3709 85.2938,162.4699 C84.5288,163.4299 83.7798,164.3949 83.0408,165.3619 C82.8078,165.6679 82.5788,165.9749 82.3488,166.2819 C81.8328,166.9669 81.3228,167.6529 80.8208,168.3409 C80.5708,168.6849 80.3198,169.0279 80.0728,169.3729 C79.5288,170.1289 78.9958,170.8879 78.4688,171.6489 C78.3048,171.8849 78.1358,172.1199 77.9738,172.3569 C77.3278,173.2989 76.6978,174.2449 76.0778,175.1919 C75.8308,175.5689 75.5908,175.9479 75.3478,176.3259 C74.9518,176.9419 74.5608,177.5599 74.1748,178.1789 C73.9148,178.5969 73.6558,179.0139 73.4008,179.4329 C73.0108,180.0739 72.6278,180.7169 72.2498,181.3599 C72.0378,181.7199 71.8198,182.0799 71.6118,182.4399 C71.6078,182.4469 71.6038,182.4529 71.5998,182.4599 C71.5478,182.5499 71.4998,182.6409 71.4478,182.7309 C70.8668,183.7439 70.2948,184.7579 69.7438,185.7739 C69.7408,185.7799 69.7378,185.7859 69.7348,185.7919 C68.5378,187.9989 67.4118,190.2109 66.3628,192.4269 C66.2668,192.6309 66.1788,192.8359 66.0828,193.0409 C65.6648,193.9349 65.2498,194.8299 64.8578,195.7239 C64.8538,195.7339 64.8508,195.7429 64.8458,195.7509 C64.8438,195.7569 64.8408,195.7629 64.8378,195.7689 C64.8168,195.8179 64.7978,195.8659 64.7768,195.9139 C64.4048,196.7659 64.0458,197.6169 63.6968,198.4659 C63.6118,198.6729 63.5318,198.8799 63.4478,199.0869 C63.1688,199.7809 62.8948,200.4719 62.6308,201.1629 C62.5248,201.4409 62.4228,201.7179 62.3188,201.9959 C62.0838,202.6239 61.8548,203.2519 61.6338,203.8799 C61.5318,204.1669 61.4318,204.4539 61.3328,204.7409 C61.1138,205.3789 60.9018,206.0169 60.6958,206.6539 C60.6128,206.9109 60.5278,207.1669 60.4468,207.4229 C60.2108,208.1709 59.9848,208.9179 59.7678,209.6639 C59.7288,209.7979 59.6858,209.9339 59.6468,210.0689 C59.1288,211.8759 58.6678,213.6729 58.2618,215.4569 C58.2218,215.6319 58.1858,215.8059 58.1478,215.9799 C57.9908,216.6879 57.8408,217.3949 57.7018,218.0989 C57.6588,218.3159 57.6188,218.5319 57.5778,218.7479 C57.4488,219.4249 57.3278,220.1009 57.2148,220.7759 C57.1808,220.9789 57.1468,221.1819 57.1138,221.3849 C56.9978,222.1129 56.8918,222.8369 56.7948,223.5599 C56.7768,223.6949 56.7568,223.8309 56.7388,223.9649 C56.3958,226.6149 56.1838,229.2299 56.1008,231.8059 C56.0978,231.8969 56.0968,231.9869 56.0938,232.0779 C56.0718,232.8329 56.0608,233.5859 56.0618,234.3349 C56.0618,234.4679 56.0628,234.5999 56.0638,234.7319 C56.0688,235.4589 56.0838,236.1829 56.1098,236.9039 C56.1138,237.0199 56.1178,237.1359 56.1228,237.2519 C56.1548,238.0459 56.1988,238.8369 56.2568,239.6229 C56.2578,239.6419 56.2588,239.6619 56.2598,239.6809 L56.2608,239.6809 C56.9768,249.2489 59.6098,258.1499 64.1748,266.0549 C70.8828,277.6739 81.8238,287.0189 95.8178,293.0809 L107.9228,298.3249 C107.9228,298.3249 101.9978,291.7559 101.2648,284.0239 C100.3998,276.8219 100.9108,270.7189 102.0998,265.6239 C102.1678,265.3309 102.2458,265.0519 102.3178,264.7659 C102.4828,264.1189 102.6508,263.4769 102.8368,262.8639 C102.8958,262.6669 102.9598,262.4819 103.0208,262.2899 C103.2228,261.6559 103.4278,261.0299 103.6468,260.4329 C103.7048,260.2759 103.7668,260.1279 103.8258,259.9729 C104.0568,259.3689 104.2908,258.7729 104.5358,258.2079 C104.5978,258.0669 104.6618,257.9359 104.7238,257.7979 C104.9668,257.2529 105.2128,256.7189 105.4658,256.2119 C105.4888,256.1669 105.5118,256.1239 105.5348,256.0789 C105.5898,255.9689 105.6468,255.8689 105.7028,255.7609 C105.9298,255.3209 106.1578,254.8879 106.3898,254.4779 C106.4498,254.3709 106.5108,254.2629 106.5708,254.1579 C106.6378,254.0429 106.7038,253.9379 106.7698,253.8259 C106.9568,253.5089 107.1438,253.1949 107.3298,252.8969 C107.4078,252.7749 107.4848,252.6489 107.5618,252.5289 C107.6918,252.3269 107.8208,252.1409 107.9508,251.9479 C108.0618,251.7829 108.1728,251.6119 108.2828,251.4539 C108.3638,251.3379 108.4448,251.2149 108.5238,251.1029 C108.8148,250.6949 109.1028,250.3069 109.3838,249.9449 C109.4018,249.9199 109.4218,249.8919 109.4408,249.8679 C115.0718,254.5959 127.4818,263.8589 150.6638,276.2179 C153.0568,277.4949 155.5638,278.8029 158.1898,280.1429 C160.9498,281.5509 163.9388,282.9529 167.1418,284.3439 C167.2718,284.4009 167.3988,284.4579 167.5298,284.5139 C167.7818,284.6239 168.0418,284.7319 168.2968,284.8399 C168.7228,285.0219 169.1448,285.2039 169.5778,285.3849 C169.6028,285.3959 169.6308,285.4069 169.6568,285.4169 C176.5228,288.2909 184.3128,291.1179 192.9508,293.8689 L192.9558,293.8699 C192.9658,293.8739 192.9758,293.8759 192.9848,293.8789 L193.6638,294.0419 L193.7498,294.0639 C195.0068,294.4299 196.2638,294.7779 197.5188,295.1169 C197.8728,295.2109 198.2258,295.3029 198.5798,295.3969 C199.5208,295.6459 200.4628,295.8859 201.4038,296.1199 C201.7628,296.2079 202.1218,296.2989 202.4798,296.3849 C203.6918,296.6789 204.9018,296.9619 206.1108,297.2309 C206.1488,297.2389 206.1868,297.2489 206.2248,297.2569 C207.4778,297.5339 208.7278,297.7919 209.9758,298.0419 C210.3208,298.1109 210.6648,298.1759 211.0098,298.2439 C211.9428,298.4239 212.8738,298.5969 213.8048,298.7629 C214.1678,298.8279 214.5308,298.8929 214.8938,298.9559 C216.0198,299.1489 217.1448,299.3329 218.2668,299.5029 C218.3618,299.5179 218.4568,299.5359 218.5518,299.5499 C218.5698,299.5529 218.5878,299.5549 218.6058,299.5579 C219.8258,299.7409 221.0418,299.9079 222.2548,300.0649 C222.6268,300.1129 222.9968,300.1559 223.3678,300.2019 C224.2308,300.3069 225.0918,300.4059 225.9508,300.4979 C226.3648,300.5419 226.7788,300.5859 227.1908,300.6269 C228.1358,300.7219 229.0768,300.8059 230.0158,300.8829 C230.2858,300.9059 230.5578,300.9329 230.8278,300.9539 C231.9718,301.0419 233.1118,301.1159 234.2478,301.1789 C234.6878,301.2039 235.1258,301.2219 235.5658,301.2429 C236.3108,301.2789 237.0538,301.3089 237.7948,301.3329 C238.2768,301.3499 238.7578,301.3649 239.2368,301.3759 C240.0068,301.3939 240.7718,301.4039 241.5368,301.4109 C241.9368,301.4139 242.3398,301.4219 242.7388,301.4219 L242.7728,301.4219 C242.9248,301.4219 243.0738,301.4169 243.2258,301.4159 C244.3418,301.4139 245.4558,301.4029 246.5608,301.3739 C246.6398,301.3719 246.7178,301.3669 246.7958,301.3639 C247.9778,301.3309 249.1538,301.2869 250.3218,301.2239 C250.3638,301.2209 250.4048,301.2169 250.4468,301.2149 C251.6438,301.1499 252.8348,301.0719 254.0168,300.9749 C254.4848,300.9369 254.9458,300.8839 255.4118,300.8409 C256.1528,300.7729 256.8968,300.7099 257.6308,300.6289 C257.6388,300.6279 257.6458,300.6269 257.6538,300.6259 C257.6628,300.6249 257.6708,300.6249 257.6798,300.6239 C257.7518,300.6169 257.8208,300.6059 257.8928,300.5969 C258.7928,300.4969 259.6858,300.3849 260.5718,300.2659 C260.8148,300.2329 261.0538,300.1959 261.2958,300.1619 C262.0148,300.0599 262.7298,299.9549 263.4388,299.8409 C263.7468,299.7909 264.0518,299.7399 264.3578,299.6879 C265.0038,299.5799 265.6458,299.4659 266.2838,299.3479 C266.5968,299.2899 266.9098,299.2309 267.2208,299.1699 C267.8678,299.0439 268.5108,298.9119 269.1488,298.7749 C269.4268,298.7159 269.7058,298.6589 269.9818,298.5969 C270.7228,298.4329 271.4568,298.2599 272.1858,298.0829 C272.3478,298.0419 272.5118,298.0059 272.6728,297.9659 C274.4878,297.5129 276.2658,297.0169 278.0058,296.4789 C278.1918,296.4209 278.3748,296.3609 278.5608,296.3019 C279.2368,296.0879 279.9088,295.8699 280.5738,295.6439" id="Fill-4" fill="#C12127"></path>
                <path d="M500.1096,140.2044 L515.0646,140.2044 C530.4416,140.2044 538.7016,144.4744 538.7016,157.2614 C538.7016,169.9774 530.4416,176.5584 515.0646,176.5584 L500.1096,176.5584 L500.1096,140.2044 Z M567.3516,157.2614 C567.3516,126.5184 544.8716,116.9954 517.4456,116.9954 L470.8756,116.9954 L470.8756,246.3014 L500.1096,246.3014 L500.1096,199.7674 L516.1866,199.7674 L540.8726,246.3014 L573.5856,246.3014 L544.3286,194.5864 C558.1406,188.3474 567.3516,176.2734 567.3516,157.2614 Z" id="Fill-6" fill="#000000"></path>
                <path d="M604.3577,186.3358 C606.3417,173.9008 614.2967,167.7198 623.5127,167.7198 C635.1557,167.7198 639.8677,175.5138 639.8677,186.3358 L604.3577,186.3358 Z M622.8587,145.4918 C599.2127,145.4918 576.4317,165.1908 576.4317,197.1218 C576.4317,229.7058 598.1627,248.6818 626.2197,248.6818 C637.8887,248.6818 651.0557,244.5748 661.1407,237.5938 L651.4977,220.0118 C644.3547,224.1898 637.6567,226.4538 630.2127,226.4538 C617.0767,226.4538 607.2997,219.9008 604.6847,205.6218 L663.5667,205.6218 C664.1277,203.2418 664.7807,197.9878 664.7807,192.7348 C664.7807,165.8698 650.8937,145.4918 622.8587,145.4918 Z" id="Fill-8" fill="#000000"></path>
                <path d="M735.7322,215.9994 C730.9032,222.4634 725.8872,224.8184 719.6812,224.8184 C708.3902,224.8184 701.7172,216.1174 701.7172,196.7944 C701.7172,178.0784 709.9992,169.3544 719.4472,169.3544 C724.7892,169.3544 730.5762,170.9644 735.7322,175.5834 L735.7322,215.9994 Z M735.7322,140.8474 L736.7822,155.7604 C730.1322,149.5294 723.5042,145.4914 712.6512,145.4914 C691.9262,145.4914 671.8292,164.9344 671.8292,197.1214 C671.8292,229.2614 687.6312,248.6824 712.0922,248.6824 C721.5902,248.6824 731.3222,243.5014 738.2772,236.5464 L739.0012,236.5464 L741.1032,246.3014 L764.8962,246.3014 L764.8962,107.3104 L735.7322,107.3104 L735.7322,140.8474 Z" id="Fill-10" fill="#000000"></path>
                <path d="M840.5818,213.013 C834.8898,220.758 830.4108,223.838 823.0838,223.838 C814.6628,223.838 810.8588,219.406 810.8588,205.242 L810.8588,147.872 L781.6948,147.872 L781.6948,208.978 C781.6948,233.578 790.8208,248.682 812.2258,248.682 C825.6468,248.682 834.9128,242.45 843.1278,232.648 L843.8518,232.648 L845.9528,246.301 L869.7458,246.301 L869.7458,147.872 L840.5818,147.872 L840.5818,213.013 Z" id="Fill-12" fill="#000000"></path>
                <path d="M972.033,147.8724 L941.818,147.8724 L935.1,163.7854 C933.001,169.2704 930.48,175.0824 928.381,180.5684 L927.587,180.5684 C924.833,175.0824 921.916,169.2704 919.232,163.7854 L910.483,147.8724 L879.218,147.8724 L907.669,195.0674 L877.421,246.3014 L907.636,246.3014 L915.286,230.0384 C917.783,224.2504 920.374,218.4614 922.87,212.9064 L923.664,212.9064 C926.814,218.4614 929.802,224.4134 932.882,230.0384 L942.564,246.3014 L973.83,246.3014 L943.582,198.4064 L972.033,147.8724 Z" id="Fill-14" fill="#000000"></path>
                <path d="M1042.8972,192.7806 L1046.0012,180.8146 C1049.5942,167.8846 1053.0472,152.7596 1056.1742,139.1066 L1056.9682,139.1066 C1060.4212,152.5956 1063.8762,167.8846 1067.4692,180.8146 L1070.5602,192.7806 L1042.8972,192.7806 Z M1084.3852,246.3016 L1115.3242,246.3016 L1074.7142,116.9956 L1039.7362,116.9956 L999.1262,246.3016 L1029.0142,246.3016 L1037.0032,215.4996 L1076.4292,215.4996 L1084.3852,246.3016 Z" id="Fill-16" fill="#000000"></path>
                <path d="M1158.7146,269.8431 C1145.5306,269.8431 1136.8966,266.0181 1136.8966,258.5511 C1136.8966,255.0051 1138.5756,251.9741 1142.2136,248.8941 C1145.4106,249.7571 1149.2616,250.1551 1156.0096,250.1551 L1166.2266,250.1551 C1175.9096,250.1551 1181.2306,251.5761 1181.2306,257.7821 C1181.2306,264.5951 1171.8506,269.8431 1158.7146,269.8431 M1156.3336,165.1041 C1164.0786,165.1041 1169.7716,170.6221 1169.7716,181.1101 C1169.7716,191.8911 1164.0096,197.5131 1156.3336,197.5131 C1148.6576,197.5131 1142.8956,191.8911 1142.8956,181.1101 C1142.8956,170.5871 1148.5876,165.1041 1156.3336,165.1041 M1171.5746,227.7861 L1155.6126,227.7861 C1144.8546,227.7861 1140.8866,225.4311 1140.8866,220.5761 C1140.8866,217.1011 1141.9116,215.3521 1144.3156,213.2511 C1148.6796,214.5581 1152.7396,215.1641 1156.3336,215.1641 C1177.8556,215.1641 1195.0816,204.7331 1195.0816,182.0911 C1195.0816,176.9351 1193.5896,172.0591 1191.7486,169.1201 L1207.5696,169.1201 L1207.5696,147.8721 L1171.5756,147.8721 C1167.1636,146.3551 1161.8186,145.4911 1156.3336,145.4911 C1135.1386,145.4911 1115.6236,157.4871 1115.6236,181.1101 C1115.6236,192.6171 1121.9016,201.8131 1128.8346,206.6451 L1128.8346,207.4381 C1122.5786,211.8501 1117.8636,218.7821 1117.8636,225.8771 C1117.8636,234.0001 1121.7626,239.1581 1126.8516,242.5901 L1126.8516,243.3841 C1117.7946,248.4251 1112.8936,255.0291 1112.8936,263.1981 C1112.8936,280.7041 1131.1706,288.1491 1154.0676,288.1491 C1187.8446,288.1491 1209.1566,273.2571 1209.1566,252.8091 C1209.1566,235.1861 1195.7106,227.7861 1171.5746,227.7861" id="Fill-18" fill="#000000"></path>
                <path d="M1256.7966,269.8431 C1243.6126,269.8431 1234.9786,266.0181 1234.9786,258.5511 C1234.9786,255.0051 1236.6576,251.9741 1240.2956,248.8941 C1243.4926,249.7571 1247.3436,250.1551 1254.0916,250.1551 L1264.3086,250.1551 C1273.9916,250.1551 1279.3126,251.5761 1279.3126,257.7821 C1279.3126,264.5951 1269.9326,269.8431 1256.7966,269.8431 M1254.4156,165.1041 C1262.1606,165.1041 1267.8536,170.6221 1267.8536,181.1101 C1267.8536,191.8911 1262.0916,197.5131 1254.4156,197.5131 C1246.7396,197.5131 1240.9776,191.8911 1240.9776,181.1101 C1240.9776,170.5871 1246.6696,165.1041 1254.4156,165.1041 M1269.6566,227.7861 L1253.6946,227.7861 C1242.9366,227.7861 1238.9686,225.4311 1238.9686,220.5761 C1238.9686,217.1011 1239.9936,215.3521 1242.3976,213.2511 C1246.7616,214.5581 1250.8216,215.1641 1254.4156,215.1641 C1275.9376,215.1641 1293.1636,204.7331 1293.1636,182.0911 C1293.1636,176.9351 1291.6716,172.0591 1289.8306,169.1201 L1305.6516,169.1201 L1305.6516,147.8721 L1269.6576,147.8721 C1265.2456,146.3551 1259.9006,145.4911 1254.4156,145.4911 C1233.2206,145.4911 1213.7056,157.4871 1213.7056,181.1101 C1213.7056,192.6171 1219.9836,201.8131 1226.9166,206.6451 L1226.9166,207.4381 C1220.6606,211.8501 1215.9456,218.7821 1215.9456,225.8771 C1215.9456,234.0001 1219.8446,239.1581 1224.9336,242.5901 L1224.9336,243.3841 C1215.8766,248.4251 1210.9756,255.0291 1210.9756,263.1981 C1210.9756,280.7041 1229.2526,288.1491 1252.1496,288.1491 C1285.9266,288.1491 1307.2386,273.2571 1307.2386,252.8091 C1307.2386,235.1861 1293.7926,227.7861 1269.6566,227.7861" id="Fill-20" fill="#000000"></path>
                <path d="M1369.6833,145.4915 C1359.6483,145.4915 1348.8863,151.9325 1341.7203,165.0735 L1340.9963,165.0735 L1338.8963,147.8725 L1315.1023,147.8725 L1315.1023,246.3015 L1344.2663,246.3015 L1344.2663,189.2615 C1349.5173,175.8435 1358.5263,171.0595 1365.9473,171.0595 C1370.1723,171.0595 1373.0673,171.7835 1376.5683,172.6465 L1381.4243,147.4755 C1378.5783,146.2155 1375.3093,145.4915 1369.6833,145.4915" id="Fill-22" fill="#000000"></path>
                <path d="M1408.3914,186.3358 C1410.3754,173.9008 1418.3304,167.7198 1427.5464,167.7198 C1439.1904,167.7198 1443.9014,175.5138 1443.9014,186.3358 L1408.3914,186.3358 Z M1426.8924,145.4918 C1403.2474,145.4918 1380.4654,165.1908 1380.4654,197.1218 C1380.4654,229.7058 1402.1974,248.6818 1430.2544,248.6818 C1441.9234,248.6818 1455.0894,244.5748 1465.1744,237.5938 L1455.5314,220.0118 C1448.3894,224.1898 1441.6914,226.4538 1434.2464,226.4538 C1421.1114,226.4538 1411.3334,219.9008 1408.7184,205.6218 L1467.6014,205.6218 C1468.1624,203.2418 1468.8154,197.9878 1468.8154,192.7348 C1468.8154,165.8698 1454.9274,145.4918 1426.8924,145.4918 Z" id="Fill-24" fill="#000000"></path>
                <path d="M1520.7029,269.8431 C1507.5189,269.8431 1498.8849,266.0181 1498.8849,258.5511 C1498.8849,255.0051 1500.5639,251.9741 1504.2019,248.8941 C1507.3989,249.7571 1511.2499,250.1551 1517.9979,250.1551 L1528.2149,250.1551 C1537.8979,250.1551 1543.2189,251.5761 1543.2189,257.7821 C1543.2189,264.5951 1533.8389,269.8431 1520.7029,269.8431 M1518.3219,165.1041 C1526.0669,165.1041 1531.7599,170.6221 1531.7599,181.1101 C1531.7599,191.8911 1525.9979,197.5131 1518.3219,197.5131 C1510.6459,197.5131 1504.8839,191.8911 1504.8839,181.1101 C1504.8839,170.5871 1510.5759,165.1041 1518.3219,165.1041 M1533.5629,227.7861 L1517.6009,227.7861 C1506.8429,227.7861 1502.8749,225.4311 1502.8749,220.5761 C1502.8749,217.1011 1503.8999,215.3521 1506.3039,213.2511 C1510.6679,214.5581 1514.7279,215.1641 1518.3219,215.1641 C1539.8439,215.1641 1557.0699,204.7331 1557.0699,182.0911 C1557.0699,176.9351 1555.5779,172.0591 1553.7369,169.1201 L1569.5579,169.1201 L1569.5579,147.8721 L1533.5639,147.8721 C1529.1519,146.3551 1523.8069,145.4911 1518.3219,145.4911 C1497.1269,145.4911 1477.6119,157.4871 1477.6119,181.1101 C1477.6119,192.6171 1483.8899,201.8131 1490.8229,206.6451 L1490.8229,207.4381 C1484.5669,211.8501 1479.8519,218.7821 1479.8519,225.8771 C1479.8519,234.0001 1483.7509,239.1581 1488.8399,242.5901 L1488.8399,243.3841 C1479.7829,248.4251 1474.8819,255.0291 1474.8819,263.1981 C1474.8819,280.7041 1493.1589,288.1491 1516.0559,288.1491 C1549.8329,288.1491 1571.1449,273.2571 1571.1449,252.8091 C1571.1449,235.1861 1557.6989,227.7861 1533.5629,227.7861" id="Fill-26" fill="#000000"></path>
                <path d="M1629.9128,217.7044 C1624.7338,222.8594 1620.3028,226.1264 1613.6998,226.1264 C1606.7698,226.1264 1602.4078,223.0224 1602.4078,216.6794 C1602.4078,209.2374 1609.1738,203.3104 1629.9128,200.5114 L1629.9128,217.7044 Z M1619.9758,145.4914 C1604.5008,145.4914 1590.4268,150.8114 1577.9348,158.4454 L1588.3028,177.5924 C1597.8498,172.1774 1606.0888,168.7014 1614.3488,168.7014 C1625.0338,168.7014 1629.3278,174.3204 1629.9128,182.9294 C1590.9818,187.0374 1574.4818,198.2644 1574.4818,219.0024 C1574.4818,235.5854 1585.8718,248.6824 1603.8218,248.6824 C1614.8848,248.6824 1624.1728,243.5014 1632.4578,236.2194 L1633.1818,236.2194 L1635.2828,246.3014 L1659.0758,246.3014 L1659.0758,190.0294 C1659.0758,159.8684 1645.1388,145.4914 1619.9758,145.4914 Z" id="Fill-28" fill="#000000"></path>
                <path d="M1721.5173,225.7992 C1713.8413,225.7992 1708.7753,221.3202 1708.7753,210.1642 L1708.7753,170.7552 L1732.3713,170.7552 L1732.3713,147.8722 L1708.7753,147.8722 L1708.7753,121.7322 L1684.6553,121.7322 L1681.2463,147.8722 L1666.1673,148.9922 L1666.1673,170.7552 L1679.6113,170.7552 L1679.6113,210.5152 C1679.6113,233.3212 1689.2773,248.6822 1713.6013,248.6822 C1723.1513,248.6822 1730.2463,246.7682 1735.4753,245.1112 L1730.8753,223.9332 C1728.2853,224.8662 1724.7613,225.7992 1721.5173,225.7992" id="Fill-30" fill="#000000"></path>
                <path d="M1765.8718,186.3358 C1767.8558,173.9008 1775.8108,167.7198 1785.0268,167.7198 C1796.6708,167.7198 1801.3818,175.5138 1801.3818,186.3358 L1765.8718,186.3358 Z M1826.2958,192.7348 C1826.2958,165.8698 1812.4078,145.4918 1784.3728,145.4918 C1760.7278,145.4918 1737.9458,165.1908 1737.9458,197.1218 C1737.9458,229.7058 1759.6778,248.6818 1787.7348,248.6818 C1799.4038,248.6818 1812.5698,244.5748 1822.6548,237.5938 L1813.0118,220.0118 C1805.8698,224.1898 1799.1718,226.4538 1791.7268,226.4538 C1778.5918,226.4538 1768.8138,219.9008 1766.1988,205.6218 L1825.0818,205.6218 C1825.6428,203.2418 1826.2958,197.9878 1826.2958,192.7348 Z" id="Fill-32" fill="#000000"></path>
            </g>
        </g>
    </g>
</svg>