<?xml version="1.0" encoding="UTF-8"?>
<svg width="285px" height="60px" viewBox="0 0 285 60" version="1.1" xmlns="http://www.w3.org/2000/svg" xmlns:xlink="http://www.w3.org/1999/xlink">
    <!-- Generator: Sketch 50.2 (55047) - http://www.bohemiancoding.com/sketch -->
    <title>Artboard 1</title>
    <desc>Created with Sketch.</desc>
    <defs>
        <polygon id="path-1" points="2.08845974e-05 0.145090909 59.6970423 0.145090909 59.6970423 59.8440935 2.08845974e-05 59.8440935"></polygon>
    </defs>
    <g id="Artboard-1" stroke="none" stroke-width="1" fill="none" fill-rule="evenodd">
        <g id="Group">
            <g id="Group-3" transform="translate(0.000000, 0.010753)">
                <mask id="mask-2" fill="white">
                    <use xlink:href="#path-1"></use>
                </mask>
                <g id="Clip-2"></g>
                <path d="M45.7366442,50.7018078 C45.6721247,50.7515221 45.6072935,50.8007688 45.5424623,50.8497039 C44.702774,51.4790026 43.8205403,52.0624831 42.8976312,52.5953143 C41.9256312,53.1565091 40.9274494,53.6497558 39.9093195,54.0775481 C39.8493195,54.1024831 39.789787,54.1281974 39.7294753,54.1528208 C39.6462545,54.1869506 39.5624104,54.218587 39.4790338,54.2519377 C38.545839,54.6205091 37.586774,54.9390545 36.6032416,55.202587 C35.5756052,55.4779636 34.5409558,55.6889766 33.5039688,55.8376519 C33.4173195,55.8498078 33.3306701,55.8616519 33.2437091,55.8728727 C33.167813,55.8830026 33.091761,55.8926649 33.0157091,55.9020156 C31.9726442,56.0274701 30.9155532,56.0918338 29.8484883,56.0918338 C28.8365922,56.0918338 27.8338909,56.0327688 26.8431896,55.9199377 C26.7481247,55.9087169 26.6530597,55.8993662 26.5579948,55.8870545 C26.4981506,55.8797299 26.4386182,55.8706909 26.3789299,55.8628987 C25.2796052,55.7131325 24.1826182,55.4943273 23.0937351,55.202587 C22.0646961,54.9267429 21.061839,54.5916779 20.0881247,54.2014442 C20.011761,54.1704312 19.9352416,54.1392623 19.8591896,54.1074701 C19.7836052,54.0763013 19.7084883,54.0448208 19.6332156,54.0130286 C18.6685403,53.6005091 17.7222545,53.1281455 16.7993455,52.5953143 C15.8273455,52.0341195 14.9008519,51.4161974 14.0212675,50.7482494 C13.9699948,50.7089766 13.9180987,50.6703273 13.866826,50.630587 C13.794826,50.5751065 13.7245403,50.5174442 13.6531636,50.4611844 C12.8683325,49.8378078 12.1134234,49.1670545 11.3942026,48.4478338 C10.6411636,47.6947948 9.94048831,46.9034182 9.29248831,46.0788468 C9.24105974,46.012613 9.18963117,45.9463792 9.13867013,45.8798338 C9.08973506,45.8162494 9.04142338,45.7525091 8.99311169,45.688613 C8.3635013,44.848613 7.77986494,43.9660675 7.24687792,43.0426909 C6.73960519,42.1641974 6.28812468,41.2637299 5.88978701,40.3468987 C5.85331948,40.2619636 5.81513766,40.1778078 5.77944935,40.0922494 C5.75560519,40.0355221 5.73285195,39.9780156 5.70931948,39.9209766 C5.28978701,38.8948987 4.93103377,37.8362494 4.63944935,36.7483013 C4.36376104,35.7191065 4.15243636,34.6828987 4.00376104,33.6443532 C3.99238442,33.5631584 3.98131948,33.4819636 3.97072208,33.4004571 C3.95981299,33.3191065 3.94952727,33.2376 3.9393974,33.1564052 C3.81441039,32.114587 3.7502026,31.0590545 3.7502026,29.9937039 C3.7502026,28.8703792 3.8222026,27.7582753 3.96105974,26.6619117 C3.96931948,26.5989506 3.97664416,26.5361455 3.98521558,26.4731844 C3.99752727,26.3809247 4.01264416,26.2892883 4.02589091,26.1973403 C4.17347532,25.2074182 4.37654026,24.2199896 4.63944935,23.2387948 C4.91467013,22.211626 5.24911169,21.210639 5.63856623,20.238639 C5.67207273,20.1558857 5.70573506,20.0732883 5.74017662,19.9908468 C5.7686961,19.9216519 5.79768312,19.852613 5.82682597,19.7837299 C6.23996883,18.8171844 6.71295584,17.8690286 7.24672208,16.944561 C7.75196883,16.0694961 8.3035013,15.2316779 8.89570909,14.4312623 C8.95399481,14.3530286 9.01072208,14.2738597 9.0700987,14.1962494 C9.10594286,14.1488727 9.14272208,14.102587 9.17887792,14.0555221 C9.85851429,13.1778078 10.5967481,12.3368727 11.3943584,11.5394182 C12.1481766,10.7854442 12.9404883,10.0839896 13.7659948,9.43552208 C13.8288,9.38658701 13.891761,9.33780779 13.9550338,9.28934026 C14.0220468,9.23775584 14.0893714,9.18663896 14.1566961,9.13583377 C14.995761,8.50715844 15.8772156,7.92414545 16.7993455,7.39178182 C17.7713455,6.83074286 18.7695273,6.3374961 19.7876571,5.90954805 C19.8476571,5.88476883 19.9071896,5.8588987 19.9673455,5.83443117 C20.0513455,5.79998961 20.135813,5.76804156 20.2199688,5.73437922 C21.1523844,5.36643117 22.1109818,5.04804156 23.0938909,4.78466494 C24.121839,4.50913247 25.1568,4.29811948 26.1942545,4.14928831 C26.2796571,4.13744416 26.3653714,4.1256 26.4510857,4.11453506 C26.5280727,4.10440519 26.6049039,4.09458701 26.6817351,4.08492468 C27.7246442,3.95962597 28.7815792,3.89541818 29.8484883,3.89541818 C30.8642805,3.89541818 31.8710338,3.95479481 32.8654753,4.06856104 C32.9557091,4.07915844 33.0459429,4.0881974 33.1361766,4.09972987 C33.1983584,4.10752208 33.2602286,4.11671688 33.3222545,4.12497662 C34.4201766,4.27458701 35.515761,4.49323636 36.6033974,4.78466494 C37.6330597,5.06050909 38.6365403,5.39588571 39.6108779,5.78658701 C39.6850597,5.81666494 39.7592416,5.84705455 39.8332675,5.87775584 C39.9108779,5.9097039 39.9881766,5.94227532 40.0653195,5.97484675 C41.0295273,6.38721039 41.9753455,6.85926234 42.8976312,7.39178182 C43.8694753,7.95282078 44.7956571,8.57058701 45.6749299,9.23837922 C45.726826,9.27796364 45.7791896,9.31692468 45.830774,9.35697662 C45.901839,9.41183377 45.9710338,9.46840519 46.0414753,9.52388571 C46.8270857,10.1478857 47.582774,10.8192623 48.302774,11.5392623 C49.0545662,12.2910545 49.7541506,13.0810286 50.4010597,13.9040416 C50.4563844,13.9749506 50.5115532,14.0460156 50.5660987,14.1175481 C50.6114494,14.1764571 50.6563325,14.2355221 50.7010597,14.2947429 C51.331761,15.1359896 51.9163325,16.0197818 52.4502545,16.944561 C52.9565922,17.8216519 53.4072935,18.7204052 53.8051636,19.6355221 C53.8425662,19.7224831 53.8815273,19.8085091 53.9179948,19.8959377 C53.9415273,19.9520416 53.9639688,20.0084571 53.9870338,20.0647169 C54.4068779,21.0912623 54.765787,22.1503792 55.0575273,23.2389506 C55.3333714,24.268613 55.5446961,25.3052883 55.6935273,26.3443013 C55.7045922,26.4239377 55.7155013,26.5034182 55.725787,26.5832104 C55.7368519,26.6661195 55.7474494,26.7491844 55.7577351,26.8322494 C55.8827221,27.8736 55.946774,28.9286649 55.946774,29.9935481 C55.946774,31.1151584 55.8749299,32.2253922 55.7365403,33.3203532 C55.7279688,33.3861195 55.7203325,33.4517299 55.7112935,33.5174961 C55.6996052,33.604613 55.6854234,33.6909506 55.6728,33.7777558 C55.5252156,34.771574 55.3213714,35.7633662 55.0575273,36.7484571 C54.781839,37.7768727 54.4469299,38.7794182 54.0568519,39.7525091 C54.0250597,39.8308987 53.9931117,39.9092883 53.9605403,39.9873662 C53.9303065,40.060613 53.8996052,40.1335481 53.8689039,40.2064831 C53.4560727,41.1720935 52.9833974,42.1191584 52.4502545,43.0426909 C51.9414234,43.9238338 51.385839,44.7671065 50.7889558,45.5726649 C50.735813,45.6438857 50.6840727,45.7160416 50.6301506,45.7867948 C50.5916571,45.8374442 50.5522286,45.8871584 50.5135792,45.9376519 C49.8351896,46.8130286 49.0985143,47.6522494 48.302774,48.4478338 C47.5494234,49.2011844 46.7578909,49.9020156 45.9331636,50.5500156 C45.8678649,50.6009766 45.8024104,50.651626 45.7366442,50.7018078 M51.2647481,50.786587 C51.270826,50.7803532 51.2765922,50.7741195 51.2826701,50.7680416 C52.8841247,49.120613 54.2850078,47.2950545 55.461787,45.3219117 C55.4666182,45.3138078 55.4716052,45.3057039 55.4764364,45.2976 C55.5509299,45.1724571 55.6241766,45.0462234 55.6969558,44.9196779 C55.7711377,44.7914182 55.8450078,44.6631584 55.9173195,44.5339636 C55.9209039,44.527574 55.9243325,44.5211844 55.9279169,44.5147948 C57.0495273,42.5073662 57.930826,40.3797818 58.5571636,38.1671065 C58.5593455,38.159626 58.5615273,38.1524571 58.5637091,38.1449766 C58.603761,38.0030026 58.6422545,37.860561 58.6801247,37.7178078 C58.7183065,37.5764571 58.7558649,37.4351065 58.7918649,37.2932883 C58.7940468,37.2844052 58.7962286,37.2756779 58.7984104,37.2667948 C59.361787,35.0385351 59.6620987,32.7565091 59.6945143,30.4582753 C59.6945143,30.450639 59.6946701,30.4430026 59.694826,30.4353662 C59.6968519,30.2877818 59.6971636,30.1401974 59.6970078,29.9924571 C59.6971636,29.8459636 59.6968519,29.699626 59.694826,29.5532883 C59.6946701,29.5442494 59.6945143,29.5353662 59.6943584,29.5264831 C59.6619429,27.2312104 59.3619429,24.9518338 58.799813,22.7260675 C58.7968519,22.7142234 58.7938909,22.7023792 58.7909299,22.6905351 C58.7558649,22.5519896 58.7190857,22.4136 58.681839,22.2755221 C58.6430338,22.1294961 58.6036052,21.9837818 58.5626182,21.8385351 C58.5613714,21.8344831 58.5602805,21.8302753 58.5590338,21.8262234 C57.8960727,19.4827948 56.9471377,17.234587 55.7296831,15.1235221 C55.7111377,15.0914182 55.6941506,15.0583792 55.6756052,15.0262753 C55.6425662,14.9692364 55.6073455,14.9137558 55.5741506,14.8568727 C55.5072935,14.7440416 55.4399688,14.6313662 55.3717091,14.5193143 C54.2412156,12.648561 52.9085922,10.912613 51.3934753,9.33687273 C51.3030857,9.24227532 51.2119169,9.1483013 51.1202805,9.05495065 C51.0468779,8.98045714 50.9736312,8.90565195 50.8992935,8.83178182 C49.1808,7.11687273 47.2617351,5.62404156 45.1779429,4.38102857 C45.1692156,4.37588571 45.1604883,4.37058701 45.151761,4.36528831 C45.0272416,4.29110649 44.9019429,4.21848312 44.7761766,4.14617143 C44.6471377,4.07136623 44.517787,3.99702857 44.3875013,3.92409351 C44.3823584,3.92128831 44.3770597,3.91832727 44.3719169,3.91552208 C42.3648,2.79375584 40.2373714,1.9123013 38.0251636,1.28580779 C38.0161247,1.28315844 38.0070857,1.28050909 37.9982026,1.27801558 C37.8574753,1.23827532 37.7165922,1.20024935 37.5752416,1.16253506 C37.4326442,1.12404156 37.2898909,1.08617143 37.1469818,1.04985974 C37.1391896,1.04798961 37.1315532,1.04611948 37.123761,1.04424935 C34.8945662,0.480561039 32.6114494,0.179937662 30.3122805,0.147677922 C30.3051117,0.147522078 30.2979429,0.14721039 30.290774,0.14721039 C30.1424104,0.145184416 29.9942026,0.144872727 29.845839,0.145184416 C29.7002805,0.144872727 29.5547221,0.145184416 29.4091636,0.147054545 C29.3993455,0.147366234 29.3895273,0.147522078 29.3797091,0.147677922 C27.0819429,0.180405195 24.8002286,0.481028571 22.5722805,1.04440519 C22.5651117,1.04627532 22.557787,1.04798961 22.5504623,1.04985974 C22.4072416,1.08617143 22.2643325,1.12404156 22.1215792,1.16269091 C21.9803844,1.20024935 21.8393455,1.23827532 21.6986182,1.27801558 C21.6898909,1.28050909 21.6810078,1.28315844 21.6721247,1.28580779 C19.4622545,1.91167792 17.3370078,2.79188571 15.331761,3.91193766 C15.3230338,3.91661299 15.3143065,3.92144416 15.3055792,3.92627532 C15.1787221,3.99734026 15.0526442,4.06965195 14.9268779,4.14274286 C14.7981506,4.21676883 14.6695792,4.29126234 14.5420987,4.36715844 C14.5360208,4.37058701 14.5302545,4.37432727 14.5243325,4.37791169 C12.5504104,5.55484675 10.7242286,6.95572987 9.07633247,8.55734026 C9.06900779,8.56450909 9.06152727,8.57167792 9.0542026,8.57869091 C8.95041039,8.67967792 8.84786494,8.78191169 8.74563117,8.88445714 C8.63965714,8.98996364 8.53430649,9.09578182 8.43004675,9.20284675 L8.4182026,9.21515844 C6.72074805,10.9607688 5.2488,12.9063273 4.02963117,15.0158338 C4.01108571,15.0474701 3.99129351,15.0784831 3.9729039,15.1104312 C3.94033247,15.1668468 3.9100987,15.2246649 3.87783896,15.2813922 C3.81285195,15.396561 3.74848831,15.5123532 3.6849039,15.6284571 C2.63108571,17.5414442 1.79451429,19.5619636 1.18781299,21.6600935 C1.15025455,21.7881974 1.11378701,21.9163013 1.0780987,22.0448727 C1.05098182,22.1438338 1.02324156,22.242639 0.99705974,22.3420675 C0.370722078,24.6883013 0.0372155844,27.0971844 0.00277402597,29.5238338 C0.00261818182,29.5342753 0.00230649351,29.544561 0.00215064935,29.5550026 C0.000124675325,29.6997818 -0.000187012987,29.844561 0.000124675325,29.9894961 C-0.000187012987,30.1387948 0.000124675325,30.2880935 0.00215064935,30.4372364 C0.00230649351,30.4431584 0.00246233766,30.4490805 0.00246233766,30.4550026 C0.0347220779,32.7554182 0.335345455,35.0399377 0.899345455,37.2700675 C0.901215584,37.2772364 0.90292987,37.2842494 0.904644156,37.2914182 C0.941111688,37.4349506 0.979137662,37.5783273 1.01778701,37.7215481 C1.05518961,37.8621195 1.09321558,38.0026909 1.1328,38.142639 C1.13544935,38.1523013 1.13825455,38.1618078 1.14105974,38.1713143 C1.76708571,40.3816519 2.64776104,42.5073662 3.76812468,44.5127688 C3.77217662,44.5202494 3.77622857,44.527574 3.78028052,44.5350545 C3.85196883,44.6631584 3.92521558,44.7903273 3.99892987,44.9174961 C4.07217662,45.0451325 4.14604675,45.1724571 4.22131948,45.2988468 C4.22552727,45.3058597 4.22989091,45.3128727 4.23394286,45.3198857 C5.41103377,47.2934961 6.81191688,49.1195221 8.41368312,50.7672623 C8.42007273,50.7738078 8.42646234,50.7805091 8.43285195,50.7872104 C8.53477403,50.8917818 8.63794286,50.9954182 8.74142338,51.098587 C8.84583896,51.2033143 8.95056623,51.307574 9.05638442,51.410587 C9.06168312,51.4158857 9.06729351,51.4210286 9.07259221,51.4261714 C10.7208,53.0287169 12.5472935,54.4302234 14.5215273,55.607626 C14.5288519,55.6121455 14.5363325,55.6166649 14.5436571,55.6210286 C14.6698909,55.6961455 14.7970597,55.7698597 14.9243844,55.8431065 C15.0513974,55.9168208 15.1787221,55.9899117 15.306826,56.0617558 C15.3144623,56.0658078 15.3220987,56.0700156 15.3297351,56.0743792 C17.3352935,57.194587 19.4610078,58.0752623 21.6715013,58.7012883 C21.6806961,58.7039377 21.6898909,58.706587 21.6992416,58.7093922 C21.8393455,58.7488208 21.9800727,58.7868468 22.1208,58.8244052 C22.2640208,58.8628987 22.4072416,58.9009247 22.5509299,58.9375481 C22.557787,58.9391065 22.5648,58.9408208 22.5716571,58.9425351 C24.9306701,59.5392623 27.3503065,59.8411325 29.7850597,59.8422234 C29.8223065,59.8423792 29.8598649,59.8440935 29.8971117,59.8440935 C29.9631896,59.8440935 30.0292675,59.8414442 30.0953455,59.8409766 C30.2259429,59.839574 30.3565403,59.8375481 30.4869818,59.834587 C32.671761,59.7907948 34.8409558,59.5049766 36.9626182,58.9811844 C37.091813,58.9497039 37.2206961,58.9171325 37.3494234,58.8839377 C37.4490078,58.8579117 37.5485922,58.8325091 37.6480208,58.8053922 C39.9944104,58.1742234 42.2485403,57.2578597 44.3684883,56.0736 C44.3755013,56.0697039 44.3825143,56.0658078 44.3895273,56.0620675 C44.5180987,55.9900675 44.6457351,55.9166649 44.7732156,55.8427948 C44.9003844,55.7697039 45.0273974,55.6959896 45.1534753,55.6208727 C45.1606442,55.6165091 45.167813,55.6123013 45.1749818,55.6077818 C47.1489039,54.4308468 48.9750857,53.0296519 50.6229818,51.427574 C50.6292156,51.4216519 50.6354494,51.4157299 50.6415273,51.4098078 C50.7467221,51.3074182 50.850826,51.2037818 50.9546182,51.0996779 C51.0587221,50.9958857 51.1623584,50.8917818 51.2647481,50.786587" id="Fill-1" fill="#C12127" mask="url(#mask-2)"></path>
            </g>
            <path d="M32.6360727,34.8927117 C31.4557091,35.5742182 30.1015792,35.8075169 28.7755013,35.5686078 C27.6889558,35.3469974 26.6904623,34.813387 25.8884883,34.0115688 C25.5280208,33.6509455 25.221787,33.2510494 24.9735273,32.8212312 C24.4784104,31.9637766 24.2145662,30.9872571 24.2147221,29.9706857 C24.2145662,28.6082961 24.6892675,27.3193091 25.5585662,26.2905818 C26.293839,25.4597766 27.2557091,24.8614909 28.3516052,24.5677247 C28.8440727,24.4358805 29.3437091,24.3705818 29.8399169,24.3705818 C30.8301506,24.3705818 31.8076052,24.6302182 32.6879688,25.1385818 C33.8681766,25.8199325 34.7471377,26.8757766 35.2034494,28.143413 C35.5548779,29.1952052 35.5922805,30.3269455 35.2986701,31.4226857 C35.1666701,31.9151532 34.9734234,32.3803481 34.7253195,32.8103221 C34.2302026,33.6677766 33.5164364,34.3843481 32.6360727,34.8927117 M43.725787,46.074374 C43.7599169,46.0626857 43.7937351,46.0508416 43.8277091,46.0388416 C43.9272935,46.0042442 44.0260987,45.9684 44.1239688,45.9319325 C44.155761,45.9200883 44.1875532,45.9082442 44.2191896,45.8959325 C44.3240727,45.8560364 44.4278649,45.8147377 44.5305662,45.7725039 C44.5525403,45.7634649 44.5745143,45.7547377 44.5964883,45.7456987 C44.9795532,45.5859584 45.3479688,45.4112571 45.7011117,45.222374 C45.7149818,45.2148935 45.7286961,45.207413 45.7425662,45.1999325 C45.8446442,45.1446078 45.9456312,45.0883481 46.0452156,45.0306857 C46.0642286,45.0196208 46.0830857,45.0085558 46.1020987,44.9974909 C46.1985662,44.9409195 46.2939429,44.8831013 46.3879169,44.8243481 C46.4042805,44.8140623 46.4206442,44.8040883 46.4370078,44.7936468 C46.5401766,44.7281922 46.6420987,44.6618026 46.7421506,44.5935429 C46.7457351,44.5910494 46.7494753,44.5890234 46.7529039,44.5865299 L46.7529039,44.586374 C47.9884364,43.7441922 48.9844364,42.6952052 49.6957091,41.4631013 C50.7411117,39.6525039 51.1497351,37.4476208 50.8774753,35.0865818 L50.6419948,33.0442442 C50.6419948,33.0442442 50.2173195,34.3556727 49.2306701,35.0572831 C48.3535792,35.7143221 47.5143584,36.1187377 46.7529039,36.358426 C46.6840208,36.3802442 46.6179429,36.3962961 46.5504623,36.4154649 C46.449787,36.4436727 46.3497351,36.4711013 46.2521766,36.4938545 C46.2214753,36.5011792 46.1917091,36.5067896 46.1614753,36.5134909 C46.0598649,36.5359325 45.9590338,36.5571273 45.8610078,36.5739584 C45.8356052,36.5783221 45.8111377,36.581439 45.7858909,36.5853351 C45.6859948,36.6015429 45.5870338,36.6165039 45.4911896,36.627413 C45.4681247,36.6299065 45.4463065,36.6313091 45.4233974,36.6338026 C45.3281766,36.6436208 45.2338909,36.6523481 45.1431896,36.6578026 C45.1191896,36.6592052 45.0965922,36.659361 45.0727481,36.6604519 C44.9859429,36.6646597 44.8999169,36.6682442 44.817787,36.6687117 C44.7880208,36.6688675 44.7604364,36.6676208 44.7312935,36.6674649 C44.6582026,36.6668416 44.5848,36.6662182 44.515761,36.6631013 C44.4719688,36.661387 44.4319169,36.6576468 44.3899948,36.6549974 C44.3412156,36.6517247 44.2910338,36.6492312 44.2447481,36.6448675 C44.2399169,36.6445558 44.2352416,36.6440883 44.2304104,36.6436208 C44.1585662,36.6369195 44.090774,36.6286597 44.0248519,36.6199325 C44.0133195,36.618374 44.0002286,36.6172831 43.9888519,36.6158805 C43.9871377,36.6155688 43.9854234,36.615413 43.9837091,36.6152571 C44.1900468,35.4479844 44.485839,32.9244 44.3122286,28.5716727 C44.3008519,28.2814909 44.2871377,27.9832052 44.2712416,27.6766597 C44.2442805,27.1572312 44.1936312,26.5994649 44.1241247,26.0124 C44.1130597,25.9185818 44.1035532,25.8275688 44.0913974,25.7320364 C44.082826,25.6640883 44.0719169,25.5927117 44.0627221,25.5239844 C44.0405922,25.3586338 44.018774,25.1939065 43.9933714,25.0238805 C43.9865143,24.9771273 43.9779429,24.9281922 43.970774,24.8809714 C43.9410078,24.6852312 43.9104623,24.4887117 43.8764883,24.2867377 C43.8721247,24.2602442 43.8666701,24.2323481 43.8621506,24.2056987 C43.8241247,23.9811273 43.7842286,23.7542182 43.7410597,23.5224779 C43.7323325,23.4751013 43.7220468,23.4256987 43.7130078,23.3781662 C43.6724883,23.1645039 43.6315013,22.9497506 43.5869299,22.7301662 C43.5774234,22.6840364 43.5666701,22.6358805 43.5571636,22.589439 C43.5115013,22.3672052 43.4649039,22.1438805 43.4150338,21.9157247 L43.4148779,21.9149455 C43.4145662,21.9132312 43.4142545,21.9118286 43.413787,21.9101143 L43.3813714,21.8004 L43.3791896,21.7926078 C43.3787221,21.7910494 43.3782545,21.7894909 43.3779429,21.7880883 C43.3065662,21.4968156 43.2298909,21.2089714 43.1507221,20.9226857 C43.130774,20.850374 43.1105143,20.7782182 43.0900987,20.7060623 C43.0090597,20.4208675 42.9255273,20.1372312 42.8371636,19.8573351 C42.8340468,19.8476727 42.830774,19.8383221 42.8276571,19.8288156 C42.7646961,19.6301143 42.7001766,19.4328156 42.6334753,19.2370753 C42.6088519,19.1646078 42.5825143,19.0935429 42.5572675,19.021387 C42.5331117,18.9523481 42.5089558,18.8834649 42.4843325,18.8147377 C42.3866182,18.5420104 42.2865662,18.2713091 42.1816831,18.0048156 C42.1773195,17.9932831 42.1724883,17.9820623 42.1679688,17.9706857 C42.0657351,17.7115169 41.9592935,17.4565558 41.8505143,17.2037766 C41.8248,17.1439325 41.7989299,17.0842442 41.7729039,17.0250234 C41.6577351,16.7625818 41.5400727,16.5026338 41.4180468,16.2476727 C41.4150857,16.241439 41.4119688,16.2355169 41.4088519,16.2292831 C41.2885403,15.9782182 41.1638649,15.7321403 41.0370078,15.4888675 C41.0116052,15.4400883 40.9862026,15.3913091 40.9604883,15.3428416 C40.8278649,15.0928675 40.6927481,14.8460104 40.5534234,14.6047636 C40.5531117,14.6039844 40.5526442,14.6035169 40.5523325,14.6028935 C40.5451636,14.5905818 40.537839,14.5787377 40.5306701,14.566426 C40.2393974,14.0639844 39.9342545,13.5804 39.6150857,13.1191013 C39.6040208,13.1030494 39.5924883,13.0877766 39.5814234,13.0717247 C39.4844883,12.9325558 39.3869299,12.7944779 39.2875013,12.6592052 C39.2865662,12.6579584 39.2854753,12.6565558 39.2843844,12.6551532 C39.2839169,12.6545299 39.2834494,12.6537506 39.2829818,12.6531273 C39.2789299,12.6476727 39.2748779,12.6425299 39.2709818,12.6370753 C39.1843325,12.5195688 39.0967481,12.4039325 39.0085403,12.2896987 C38.9862545,12.2608675 38.9635013,12.2326597 38.9410597,12.2039844 C38.8704623,12.1135948 38.7995532,12.0241403 38.7280208,11.9360883 C38.6979429,11.8991532 38.6677091,11.8626857 38.6374753,11.8260623 C38.5717091,11.7465818 38.505787,11.6677247 38.4392416,11.5901143 C38.4076052,11.5530234 38.3759688,11.5160883 38.3440208,11.4796208 C38.2760727,11.401387 38.2076571,11.3245558 38.1389299,11.2481922 C38.109787,11.2159325 38.0806442,11.1832052 38.0513455,11.1511013 C37.9703065,11.0628935 37.8889558,10.9760883 37.8069818,10.8905299 C37.7901506,10.8729195 37.7734753,10.8548416 37.7564883,10.837387 C37.5537351,10.6271532 37.3478649,10.4256468 37.1393455,10.2324 C37.1173714,10.2121403 37.0952416,10.1923481 37.0732675,10.1722442 C36.9916052,10.0972831 36.9094753,10.0235688 36.8268779,9.95125714 C36.799761,9.92756883 36.7724883,9.90434805 36.7453714,9.88081558 C36.6652675,9.81177662 36.5848519,9.74398442 36.5041247,9.67743896 C36.4780987,9.65593247 36.4520727,9.63442597 36.4258909,9.61338701 C36.3384623,9.54232208 36.2505662,9.47281558 36.1623584,9.40471169 C36.1439688,9.39052987 36.1257351,9.37603636 36.1071896,9.36185455 C35.7771117,9.10985455 35.4415792,8.87795844 35.1012156,8.66647792 C35.0879688,8.65821818 35.0745662,8.65027013 35.0614753,8.64216623 C34.9625143,8.58107532 34.8632416,8.52201039 34.7633455,8.4645039 C34.7443325,8.45343896 34.7251636,8.44252987 34.7059948,8.43162078 C34.6089039,8.37645195 34.5113455,8.3229974 34.4136312,8.27094545 C34.3963325,8.26190649 34.3791896,8.25255584 34.3620468,8.24351688 C34.2537351,8.18678961 34.1451117,8.13193247 34.0360208,8.07925714 C34.0322805,8.07738701 34.0286961,8.07536104 34.0249558,8.07364675 L34.0248,8.07364675 C32.6776831,7.42486753 31.2711896,7.08668571 29.8484883,7.08668571 C27.7576831,7.08684156 25.6439688,7.83536104 23.7353455,9.25151688 L22.0843325,10.4767636 C22.0843325,10.4767636 23.4325403,10.1887636 24.5332675,10.6924519 C25.5953455,11.1467377 26.3913974,11.7051273 26.9909299,12.2755169 C27.3989299,12.663413 27.7149818,13.0567636 27.9596571,13.4268935 C27.9669818,13.4381143 27.973839,13.4490234 27.9810078,13.4600883 C28.0311896,13.5369195 28.0780987,13.6126597 28.1222026,13.6873091 C28.1331117,13.7056987 28.1440208,13.7242442 28.1546182,13.7426338 C28.1928,13.8088675 28.2283325,13.8736987 28.2621506,13.937439 C28.2735273,13.9589455 28.2853714,13.9807636 28.2962805,14.0019584 C28.3272935,14.062426 28.3556571,14.1210234 28.382774,14.1788416 C28.3925922,14.199413 28.4031896,14.2206078 28.4122286,14.2408675 C28.4449558,14.3124 28.4750338,14.3819065 28.5021506,14.4482961 C28.5032416,14.4512571 28.5048,14.4545299 28.5060468,14.4574909 C27.3922286,14.862374 25.0586182,15.8680364 21.3758649,18.1946338 C21.1302545,18.3498545 20.8788779,18.5106857 20.6212675,18.6777506 C20.3346701,18.8635169 20.0380987,19.0682961 19.7352935,19.2849195 C19.6815273,19.3232571 19.6291636,19.3589455 19.5749299,19.398374 C19.5556052,19.4122442 19.5355013,19.4279844 19.5160208,19.4420104 C18.4531636,20.2178026 17.2960208,21.1739065 16.0601766,22.2997247 L16.0592416,22.3006597 C16.0581506,22.3017506 16.0572156,22.3025299 16.0561247,22.3036208 L15.9875532,22.3756208 L15.9715013,22.3924519 C15.823761,22.5339584 15.6785143,22.6768675 15.5345143,22.8204 C15.5200208,22.8347377 15.5050597,22.8489195 15.4905662,22.863413 C15.4659429,22.8881922 15.4420987,22.9132831 15.4176312,22.9380623 C15.3090078,23.0474649 15.2014753,23.1573351 15.0950338,23.2678286 C15.0713455,23.2924519 15.0468779,23.3166078 15.0233455,23.3412312 C15.0085403,23.3568156 14.9943584,23.3725558 14.9797091,23.3879844 C14.8425662,23.5318286 14.7069818,23.6761403 14.5737351,23.8216987 C14.5724883,23.8229455 14.5713974,23.8241922 14.5703065,23.825439 C14.5699948,23.8257506 14.569839,23.8259065 14.5695273,23.8262182 C14.4339429,23.974426 14.3008519,24.1237247 14.1691636,24.2734909 C14.1336312,24.3140104 14.0987221,24.3545299 14.0636571,24.3950494 C13.9660987,24.5072571 13.8696312,24.6199325 13.7744104,24.7330753 C13.7373195,24.7771792 13.7000727,24.8212831 13.6632935,24.865387 C13.5506182,25.0009714 13.4393455,25.1370234 13.3299429,25.2736987 C13.3176312,25.2891273 13.3048519,25.3045558 13.2925403,25.3199844 C13.1733195,25.4695948 13.0565922,25.6199844 12.9414234,25.7706857 C12.9051117,25.818374 12.8694234,25.8662182 12.8335792,25.9140623 C12.7531636,26.0208156 12.6736831,26.1277247 12.5954494,26.2349455 C12.5564883,26.2885558 12.5173714,26.3420104 12.4788779,26.3957766 C12.3940987,26.5135948 12.3110338,26.6318805 12.2289039,26.7504779 C12.2033455,26.7872571 12.1770078,26.8238805 12.151761,26.8608156 C12.0510857,27.0076208 11.9529039,27.1550494 11.8562805,27.3026338 C11.817787,27.361387 11.7803844,27.4204519 11.7425143,27.479361 C11.6808,27.575361 11.6198649,27.6716727 11.5597091,27.7681403 C11.5191896,27.8332831 11.478826,27.8982701 11.4390857,27.9635688 C11.3783065,28.0634649 11.3186182,28.1636727 11.2597091,28.2638805 C11.2266701,28.3199844 11.1926961,28.3760883 11.1602805,28.4321922 C11.1596571,28.4332831 11.1590338,28.4342182 11.1584104,28.4353091 C11.1503065,28.4493351 11.142826,28.4635169 11.1347221,28.4775429 C11.0441766,28.635413 10.9550338,28.793439 10.8691636,28.9517766 C10.8686961,28.9527117 10.8682286,28.9536468 10.867761,28.9545818 C10.6812156,29.2985299 10.5057351,29.6432571 10.3422545,29.9886078 C10.3272935,30.0204 10.3135792,30.0523481 10.2986182,30.0842961 C10.2334753,30.2236208 10.1688,30.3631013 10.1077091,30.502426 C10.1070857,30.5039844 10.1066182,30.505387 10.105839,30.5066338 C10.1055273,30.5075688 10.1050597,30.5085039 10.1045922,30.509439 C10.1013195,30.5170753 10.0983584,30.5245558 10.0950857,30.5320364 C10.0371117,30.6648156 9.98116364,30.797439 9.92677403,30.9297506 C9.91352727,30.9620104 9.90105974,30.9942701 9.88796883,31.0265299 C9.84448831,31.1346857 9.80178701,31.242374 9.76064416,31.3500623 C9.74412468,31.393387 9.72822857,31.4365558 9.71202078,31.4798805 C9.6753974,31.5777506 9.63970909,31.6756208 9.60526753,31.7734909 C9.58937143,31.8182182 9.57378701,31.8629455 9.55835844,31.9076727 C9.52422857,32.0071013 9.49118961,32.1065299 9.45908571,32.2058026 C9.44615065,32.2458545 9.4329039,32.2857506 9.42028052,32.3256468 C9.3835013,32.4422182 9.34828052,32.5586338 9.31446234,32.6748935 C9.30838442,32.6957766 9.30168312,32.7169714 9.29560519,32.7380104 C9.21487792,33.0196208 9.14303377,33.2996727 9.07976104,33.5776987 C9.07352727,33.6049714 9.06791688,33.6320883 9.06199481,33.6592052 C9.03752727,33.7695429 9.01415065,33.8797247 8.99248831,33.989439 C8.98578701,34.0232571 8.97955325,34.0569195 8.97316364,34.0905818 C8.95305974,34.1960883 8.9342026,34.301439 8.91659221,34.4066338 C8.91129351,34.4382701 8.90599481,34.4699065 8.90085195,34.5015429 C8.88277403,34.6149974 8.86625455,34.7278286 8.85113766,34.8405039 C8.84833247,34.8615429 8.84521558,34.8827377 8.84241039,34.9036208 C8.78895584,35.3166078 8.75591688,35.7241403 8.74298182,36.1255948 C8.74251429,36.1397766 8.74235844,36.1538026 8.74189091,36.1679844 C8.73846234,36.2856468 8.73674805,36.4029974 8.7369039,36.5197247 C8.7369039,36.5404519 8.73705974,36.5610234 8.73721558,36.5815948 C8.73799481,36.6948935 8.74033247,36.8077247 8.74438442,36.9200883 C8.74500779,36.9381662 8.74563117,36.9562442 8.74641039,36.9743221 C8.7513974,37.0980623 8.75825455,37.2213351 8.76729351,37.3438286 C8.76744935,37.3467896 8.76760519,37.3499065 8.76776104,37.3528675 L8.76791688,37.3528675 C8.8795013,38.8439844 9.28983896,40.2311532 10.0012675,41.4631013 C11.0466701,43.2738545 12.751761,44.7302182 14.9326442,45.6749455 L16.8191377,46.4921922 C16.8191377,46.4921922 15.895761,45.4684519 15.7815273,44.2634649 C15.6467221,43.1410753 15.7263584,42.1899584 15.9116571,41.3959325 C15.9222545,41.3502701 15.9344104,41.3067896 15.9456312,41.2622182 C15.9713455,41.161387 15.9975273,41.0613351 16.0265143,40.9658026 C16.0357091,40.9351013 16.0456831,40.9062701 16.0551896,40.8763481 C16.0866701,40.7775429 16.1186182,40.6799844 16.1527481,40.5869455 C16.161787,40.5624779 16.1714494,40.539413 16.1806442,40.5152571 C16.2166442,40.4211273 16.2531117,40.3282442 16.2912935,40.2401922 C16.3009558,40.2182182 16.3109299,40.1978026 16.3205922,40.1762961 C16.3584623,40.091361 16.3968,40.0081403 16.4362286,39.9291273 C16.439813,39.9221143 16.4433974,39.915413 16.4469818,39.9084 C16.4555532,39.8912571 16.4644364,39.8756727 16.4731636,39.8588416 C16.5085403,39.7902701 16.5440727,39.7227896 16.5802286,39.6588935 C16.5895792,39.6422182 16.5990857,39.625387 16.6084364,39.6090234 C16.6188779,39.5911013 16.6291636,39.5747377 16.6394494,39.5572831 C16.6685922,39.5078805 16.6977351,39.4589455 16.7267221,39.4125039 C16.7388779,39.3934909 16.7508779,39.3738545 16.7628779,39.3551532 C16.7831377,39.3236727 16.8032416,39.2946857 16.8235013,39.2646078 C16.8408,39.2388935 16.8580987,39.2122442 16.8752416,39.1876208 C16.8878649,39.1695429 16.9004883,39.150374 16.9128,39.1329195 C16.9581506,39.0693351 17.0030338,39.0088675 17.046826,38.9524519 C17.0496312,38.9485558 17.0527481,38.9441922 17.0557091,38.9404519 C17.9332675,39.6772831 19.8672935,41.1208675 23.4800727,43.0469455 C23.8530078,43.2459584 24.2437091,43.4498026 24.6529558,43.6586338 C25.0830857,43.8780623 25.5489039,44.0965558 26.0480727,44.3133351 C26.0683325,44.3222182 26.0881247,44.3311013 26.1085403,44.3398286 C26.147813,44.3569714 26.1883325,44.3738026 26.2280727,44.3906338 C26.2944623,44.4189974 26.3602286,44.447361 26.4277091,44.4755688 C26.4316052,44.4772831 26.4359688,44.4789974 26.4400208,44.4805558 C27.5100468,44.9284519 28.7240727,45.3690234 30.0702545,45.7977506 L30.0710338,45.7979065 C30.0725922,45.7985299 30.0741506,45.7988416 30.0755532,45.7993091 L30.1813714,45.8247117 L30.194774,45.8281403 C30.3906701,45.8851792 30.5865662,45.939413 30.7821506,45.9922442 C30.8373195,46.0068935 30.8923325,46.0212312 30.9475013,46.0358805 C31.0941506,46.0746857 31.2409558,46.1120883 31.3876052,46.1485558 C31.4435532,46.1622701 31.4995013,46.1764519 31.5552935,46.1898545 C31.7441766,46.2356727 31.9327481,46.2797766 32.1211636,46.3216987 C32.1270857,46.3229455 32.1330078,46.3245039 32.1389299,46.3257506 C32.3342026,46.3689195 32.5290078,46.4091273 32.7235013,46.4480883 C32.7772675,46.4588416 32.8308779,46.4689714 32.8846442,46.4795688 C33.0300468,46.5076208 33.1751377,46.5345818 33.3202286,46.5604519 C33.3768,46.5705818 33.4333714,46.5807117 33.4899429,46.5905299 C33.6654234,46.6206078 33.8407481,46.6492831 34.0156052,46.6757766 C34.0304104,46.6781143 34.0452156,46.6809195 34.0600208,46.6831013 C34.062826,46.6835688 34.0656312,46.6838805 34.0684364,46.6843481 C34.2585662,46.7128675 34.4480727,46.7388935 34.6371117,46.763361 C34.6950857,46.7708416 34.7527481,46.7775429 34.8105662,46.7847117 C34.9450597,46.8010753 35.0792416,46.8165039 35.2131117,46.8308416 C35.2776312,46.8376987 35.3421506,46.8445558 35.4063584,46.8509455 C35.5536312,46.8657506 35.7002805,46.8788416 35.8466182,46.8908416 C35.8886961,46.894426 35.9310857,46.8986338 35.9731636,46.9019065 C36.1514494,46.9156208 36.3291117,46.9271532 36.5061506,46.9369714 C36.5747221,46.9408675 36.6429818,46.9436727 36.7115532,46.9469455 C36.8276571,46.9525558 36.9434494,46.9572312 37.0589299,46.9609714 C37.1340468,46.9636208 37.2090078,46.9659584 37.2836571,46.9676727 C37.4036571,46.9704779 37.5228779,46.9720364 37.6420987,46.9731273 C37.7044364,46.9735948 37.7672416,46.9748416 37.8294234,46.9748416 L37.8347221,46.9748416 C37.8584104,46.9748416 37.8816312,46.9740623 37.9053195,46.9739065 C38.0792416,46.9735948 38.2528519,46.9718805 38.4250597,46.967361 C38.4373714,46.9670494 38.4495273,46.9662701 38.4616831,46.9658026 C38.6458909,46.9606597 38.8291636,46.9538026 39.0111896,46.9439844 C39.0177351,46.9435169 39.0241247,46.9428935 39.0306701,46.9425818 C39.2172156,46.9324519 39.402826,46.9202961 39.5870338,46.9051792 C39.6599688,46.8992571 39.731813,46.8909974 39.8044364,46.8842961 C39.9199169,46.8736987 40.0358649,46.8638805 40.1502545,46.8512571 C40.1515013,46.8511013 40.1525922,46.8509455 40.153839,46.8507896 C40.1552416,46.8506338 40.1564883,46.8506338 40.1578909,46.8504779 C40.1691117,46.849387 40.1798649,46.8476727 40.1910857,46.8462701 C40.3313455,46.8306857 40.4705143,46.8132312 40.6085922,46.7946857 C40.6464623,46.7895429 40.6837091,46.7837766 40.7214234,46.7784779 C40.8334753,46.7625818 40.9449039,46.7462182 41.0553974,46.7284519 C41.1033974,46.7206597 41.1509299,46.7127117 41.1986182,46.7046078 C41.2992935,46.6877766 41.3993455,46.6700104 41.498774,46.6516208 C41.5475532,46.6425818 41.5963325,46.633387 41.6448,46.6238805 C41.7456312,46.6042442 41.845839,46.5836727 41.9452675,46.5623221 C41.9885922,46.5531273 42.0320727,46.5442442 42.0750857,46.5345818 C42.1905662,46.5090234 42.3049558,46.4820623 42.4185662,46.4544779 C42.443813,46.4480883 42.4693714,46.4424779 42.4944623,46.4362442 C42.7773195,46.3656468 43.0544104,46.2883481 43.3255792,46.2045039 C43.3545662,46.1954649 43.3830857,46.1861143 43.4120727,46.1769195 C43.5174234,46.1435688 43.6221506,46.1095948 43.725787,46.074374" id="Fill-4" fill="#C12127"></path>
            <path d="M77.9391584,21.8500364 L80.2698078,21.8500364 C82.6662234,21.8500364 83.9534961,22.5154909 83.9534961,24.5082701 C83.9534961,26.4899844 82.6662234,27.5155948 80.2698078,27.5155948 L77.9391584,27.5155948 L77.9391584,21.8500364 Z M88.4184312,24.5082701 C88.4184312,19.7171532 84.9150545,18.2330494 80.6408727,18.2330494 L73.3832104,18.2330494 L73.3832104,38.3846338 L77.9391584,38.3846338 L77.9391584,31.1325818 L80.4446649,31.1325818 L84.2918338,38.3846338 L89.3899636,38.3846338 L84.8304312,30.3251532 C86.9829506,29.3528416 88.4184312,27.4711792 88.4184312,24.5082701 Z" id="Fill-6" fill="#000000"></path>
            <path d="M94.1856156,29.0393455 C94.4948104,27.1014234 95.7345506,26.1381506 97.1708104,26.1381506 C98.9853039,26.1381506 99.7196416,27.3528 99.7196416,29.0393455 L94.1856156,29.0393455 Z M97.0688883,22.6740468 C93.3837974,22.6740468 89.8335117,25.7440208 89.8335117,30.7202805 C89.8335117,35.7983065 93.220161,38.7556052 97.5926805,38.7556052 C99.411226,38.7556052 101.463226,38.1155532 103.034914,37.0276052 L101.532109,34.2875532 C100.418914,34.9386701 99.3750701,35.2915013 98.2149662,35.2915013 C96.1677974,35.2915013 94.6441091,34.2702545 94.2365766,32.0449558 L103.412992,32.0449558 C103.500421,31.6740468 103.602187,30.8552416 103.602187,30.0365922 C103.602187,25.849839 101.437979,22.6740468 97.0688883,22.6740468 Z" id="Fill-8" fill="#000000"></path>
            <path d="M114.659564,33.6622442 C113.906992,34.6696208 113.125278,35.0366338 112.158109,35.0366338 C110.398473,35.0366338 109.358525,33.6806338 109.358525,30.6692571 C109.358525,27.7524779 110.649226,26.3928935 112.121642,26.3928935 C112.954161,26.3928935 113.856031,26.6438026 114.659564,27.3636468 L114.659564,33.6622442 Z M114.659564,21.9502442 L114.8232,24.2743481 C113.786836,23.3032831 112.753901,22.6739844 111.062525,22.6739844 C107.832655,22.6739844 104.700655,25.7040623 104.700655,30.7202182 C104.700655,35.7290494 107.163304,38.7556987 110.975408,38.7556987 C112.455616,38.7556987 113.972291,37.9482701 115.056187,36.864374 L115.169018,36.864374 L115.496603,38.3846338 L119.204603,38.3846338 L119.204603,16.7236987 L114.659564,16.7236987 L114.659564,21.9502442 Z" id="Fill-10" fill="#000000"></path>
            <path d="M130.999761,33.1968312 C130.112696,34.4038442 129.41467,34.8838442 128.2728,34.8838442 C126.960436,34.8838442 126.367605,34.1931429 126.367605,31.9857662 L126.367605,23.044987 L121.822566,23.044987 L121.822566,32.568 C121.822566,36.4017662 123.2448,38.7556364 126.580644,38.7556364 C128.672229,38.7556364 130.116281,37.7844156 131.39654,36.2568312 L131.509371,36.2568312 L131.8368,38.3845714 L135.5448,38.3845714 L135.5448,23.044987 L130.999761,23.044987 L130.999761,33.1968312 Z" id="Fill-12" fill="#000000"></path>
            <path d="M151.485662,23.0450494 L146.776831,23.0450494 L145.72987,25.5249974 C145.402753,26.3798026 145.00987,27.2855688 144.682753,28.1405299 L144.559013,28.1405299 C144.129818,27.2855688 143.675221,26.3798026 143.256935,25.5249974 L141.893455,23.0450494 L137.020987,23.0450494 L141.454909,30.4001143 L136.740935,38.3846338 L141.449766,38.3846338 L142.641974,35.8501403 C143.031117,34.9481143 143.434909,34.0459325 143.823896,33.1802182 L143.947636,33.1802182 C144.438545,34.0459325 144.904208,34.9735169 145.384208,35.8501403 L146.893091,38.3846338 L151.765714,38.3846338 L147.05174,30.9204779 L151.485662,23.0450494 Z" id="Fill-14" fill="#000000"></path>
            <path d="M162.529434,30.0437299 L163.013174,28.1788987 C163.573122,26.1638338 164.111252,23.8066909 164.598577,21.6789506 L164.722317,21.6789506 C165.260447,23.7811325 165.798888,26.1638338 166.358836,28.1788987 L166.840551,30.0437299 L162.529434,30.0437299 Z M168.995096,38.3846649 L173.816758,38.3846649 L167.487927,18.2330805 L162.03681,18.2330805 L155.707979,38.3846649 L160.365849,38.3846649 L161.610888,33.5843532 L167.7552,33.5843532 L168.995096,38.3846649 Z" id="Fill-16" fill="#000000"></path>
            <path d="M180.578899,42.0534701 C178.524249,42.0534701 177.178691,41.4573662 177.178691,40.2936779 C177.178691,39.7410545 177.440353,39.2686909 178.007314,38.7886909 C178.505548,38.9231844 179.105704,38.9852104 180.15734,38.9852104 L181.7496,38.9852104 C183.258639,38.9852104 184.087886,39.2066649 184.087886,40.1738338 C184.087886,41.2356 182.626068,42.0534701 180.578899,42.0534701 M180.207834,25.7305091 C181.414847,25.7305091 182.302068,26.5904571 182.302068,28.2249506 C182.302068,29.9051065 181.404094,30.7812623 180.207834,30.7812623 C179.011574,30.7812623 178.1136,29.9051065 178.1136,28.2249506 C178.1136,26.5850026 179.000665,25.7305091 180.207834,25.7305091 M182.583055,35.4991325 L180.09547,35.4991325 C178.418899,35.4991325 177.800509,35.1321195 177.800509,34.3754961 C177.800509,33.8339377 177.960249,33.5613662 178.334899,33.2339377 C179.015003,33.437626 179.64773,33.5320675 180.207834,33.5320675 C183.561912,33.5320675 186.246483,31.9064571 186.246483,28.3778338 C186.246483,27.5743013 186.013964,26.8144052 185.727055,26.3563792 L188.192665,26.3563792 L188.192665,23.0450026 L182.58321,23.0450026 C181.895626,22.808587 181.062639,22.6739377 180.207834,22.6739377 C176.904717,22.6739377 173.863418,24.5434442 173.863418,28.2249506 C173.863418,30.0182494 174.841808,31.4513922 175.922275,32.2044312 L175.922275,32.3280156 C174.947314,33.0156 174.212509,34.0959117 174.212509,35.201626 C174.212509,36.4675481 174.820145,37.2713922 175.613236,37.8062494 L175.613236,37.9299896 C174.201756,38.7156 173.437964,39.7447948 173.437964,41.0178857 C173.437964,43.7460935 176.286327,44.9063532 179.854691,44.9063532 C185.118639,44.9063532 188.43999,42.5855221 188.43999,39.3988208 C188.43999,36.6523792 186.344509,35.4991325 182.583055,35.4991325" id="Fill-18" fill="#000000"></path>
            <path d="M195.864405,42.0534701 C193.809756,42.0534701 192.464197,41.4573662 192.464197,40.2936779 C192.464197,39.7410545 192.72586,39.2686909 193.292821,38.7886909 C193.791055,38.9231844 194.39121,38.9852104 195.442847,38.9852104 L197.035106,38.9852104 C198.544145,38.9852104 199.373392,39.2066649 199.373392,40.1738338 C199.373392,41.2356 197.911574,42.0534701 195.864405,42.0534701 M195.49334,25.7305091 C196.700353,25.7305091 197.587574,26.5904571 197.587574,28.2249506 C197.587574,29.9051065 196.6896,30.7812623 195.49334,30.7812623 C194.297081,30.7812623 193.399106,29.9051065 193.399106,28.2249506 C193.399106,26.5850026 194.286171,25.7305091 195.49334,25.7305091 M197.868561,35.4991325 L195.380977,35.4991325 C193.704405,35.4991325 193.086016,35.1321195 193.086016,34.3754961 C193.086016,33.8339377 193.245756,33.5613662 193.620405,33.2339377 C194.300509,33.437626 194.933236,33.5320675 195.49334,33.5320675 C198.847418,33.5320675 201.53199,31.9064571 201.53199,28.3778338 C201.53199,27.5743013 201.29947,26.8144052 201.012561,26.3563792 L203.478171,26.3563792 L203.478171,23.0450026 L197.868717,23.0450026 C197.181132,22.808587 196.348145,22.6739377 195.49334,22.6739377 C192.190223,22.6739377 189.148925,24.5434442 189.148925,28.2249506 C189.148925,30.0182494 190.127314,31.4513922 191.207782,32.2044312 L191.207782,32.3280156 C190.232821,33.0156 189.498016,34.0959117 189.498016,35.201626 C189.498016,36.4675481 190.105652,37.2713922 190.898743,37.8062494 L190.898743,37.9299896 C189.487262,38.7156 188.72347,39.7447948 188.72347,41.0178857 C188.72347,43.7460935 191.571834,44.9063532 195.140197,44.9063532 C200.404145,44.9063532 203.725496,42.5855221 203.725496,39.3988208 C203.725496,36.6523792 201.630016,35.4991325 197.868561,35.4991325" id="Fill-20" fill="#000000"></path>
            <path d="M213.457138,22.674 C211.893242,22.674 210.216047,23.6777922 209.099268,25.7257403 L208.986436,25.7257403 L208.659164,23.0450649 L204.951008,23.0450649 L204.951008,38.3846494 L209.496047,38.3846494 L209.496047,29.4952987 C210.314384,27.4041818 211.718384,26.6586234 212.874904,26.6586234 C213.533345,26.6586234 213.984514,26.7714545 214.530125,26.9059481 L215.286904,22.9831948 C214.843371,22.7868312 214.333917,22.674 213.457138,22.674" id="Fill-22" fill="#000000"></path>
            <path d="M219.489569,29.0393455 C219.798764,27.1014234 221.038504,26.1381506 222.474764,26.1381506 C224.289413,26.1381506 225.023595,27.3528 225.023595,29.0393455 L219.489569,29.0393455 Z M222.372842,22.6740468 C218.687906,22.6740468 215.137465,25.7440208 215.137465,30.7202805 C215.137465,35.7983065 218.52427,38.7556052 222.89679,38.7556052 C224.715335,38.7556052 226.767179,38.1155532 228.338868,37.0276052 L226.836062,34.2875532 C225.723023,34.9386701 224.679179,35.2915013 223.518919,35.2915013 C221.471906,35.2915013 219.948062,34.2702545 219.54053,32.0449558 L228.717101,32.0449558 C228.80453,31.6740468 228.906296,30.8552416 228.906296,30.0365922 C228.906296,25.849839 226.741932,22.6740468 222.372842,22.6740468 Z" id="Fill-24" fill="#000000"></path>
            <path d="M236.99266,42.0534701 C234.93801,42.0534701 233.592452,41.4573662 233.592452,40.2936779 C233.592452,39.7410545 233.854114,39.2686909 234.421075,38.7886909 C234.919309,38.9231844 235.519465,38.9852104 236.571101,38.9852104 L238.163361,38.9852104 C239.6724,38.9852104 240.501647,39.2066649 240.501647,40.1738338 C240.501647,41.2356 239.039829,42.0534701 236.99266,42.0534701 M236.621595,25.7305091 C237.828608,25.7305091 238.715829,26.5904571 238.715829,28.2249506 C238.715829,29.9051065 237.817855,30.7812623 236.621595,30.7812623 C235.425335,30.7812623 234.527361,29.9051065 234.527361,28.2249506 C234.527361,26.5850026 235.414426,25.7305091 236.621595,25.7305091 M238.996816,35.4991325 L236.509231,35.4991325 C234.83266,35.4991325 234.21427,35.1321195 234.21427,34.3754961 C234.21427,33.8339377 234.37401,33.5613662 234.74866,33.2339377 C235.428764,33.437626 236.061491,33.5320675 236.621595,33.5320675 C239.975673,33.5320675 242.660244,31.9064571 242.660244,28.3778338 C242.660244,27.5743013 242.427725,26.8144052 242.140816,26.3563792 L244.606426,26.3563792 L244.606426,23.0450026 L238.996971,23.0450026 C238.309387,22.808587 237.4764,22.6739377 236.621595,22.6739377 C233.318478,22.6739377 230.277179,24.5434442 230.277179,28.2249506 C230.277179,30.0182494 231.255569,31.4513922 232.336036,32.2044312 L232.336036,32.3280156 C231.361075,33.0156 230.62627,34.0959117 230.62627,35.201626 C230.62627,36.4675481 231.233906,37.2713922 232.026997,37.8062494 L232.026997,37.9299896 C230.615517,38.7156 229.851725,39.7447948 229.851725,41.0178857 C229.851725,43.7460935 232.700088,44.9063532 236.268452,44.9063532 C241.5324,44.9063532 244.853751,42.5855221 244.853751,39.3988208 C244.853751,36.6523792 242.75827,35.4991325 238.996816,35.4991325" id="Fill-26" fill="#000000"></path>
            <path d="M254.012384,33.9279584 C253.205268,34.7313351 252.514722,35.2404779 251.485683,35.2404779 C250.405683,35.2404779 249.725891,34.7567377 249.725891,33.7682182 C249.725891,32.608426 250.780332,31.6847377 254.012384,31.2485299 L254.012384,33.9279584 Z M252.463761,22.6739844 C250.052073,22.6739844 247.858722,23.5030753 245.911917,24.6927896 L247.527709,27.6767377 C249.015553,26.8328416 250.299553,26.2911273 251.586826,26.2911273 C253.252021,26.2911273 253.921216,27.1668156 254.012384,28.5084779 C247.945216,29.1486857 245.373787,30.8983481 245.373787,34.1302442 C245.373787,36.7146078 247.148852,38.7556987 249.946255,38.7556987 C251.670358,38.7556987 253.117839,37.9482701 254.409008,36.813413 L254.521839,36.813413 L254.849268,38.3846338 L258.557268,38.3846338 L258.557268,29.6149714 C258.557268,24.9145558 256.385268,22.6739844 252.463761,22.6739844 Z" id="Fill-28" fill="#000000"></path>
            <path d="M268.28841,35.1894857 C267.092151,35.1894857 266.302644,34.4914597 266.302644,32.7528623 L266.302644,26.6112 L269.979943,26.6112 L269.979943,23.0450182 L266.302644,23.0450182 L266.302644,18.9712519 L262.543683,18.9712519 L262.01241,23.0450182 L259.662436,23.2195636 L259.662436,26.6112 L261.757605,26.6112 L261.757605,32.8075636 C261.757605,36.3617455 263.263995,38.7556675 267.054748,38.7556675 C268.54306,38.7556675 269.648774,38.4573818 270.463683,38.1991481 L269.7468,34.8986805 C269.343164,35.0440831 268.793969,35.1894857 268.28841,35.1894857" id="Fill-30" fill="#000000"></path>
            <path d="M275.2008,29.0393455 C275.509995,27.1014234 276.749735,26.1381506 278.185995,26.1381506 C280.000644,26.1381506 280.734826,27.3528 280.734826,29.0393455 L275.2008,29.0393455 Z M284.617527,30.0365922 C284.617527,25.849839 282.453164,22.6740468 278.084073,22.6740468 C274.399138,22.6740468 270.848696,25.7440208 270.848696,30.7202805 C270.848696,35.7983065 274.235501,38.7556052 278.608021,38.7556052 C280.426566,38.7556052 282.47841,38.1155532 284.050099,37.0276052 L282.547294,34.2875532 C281.434255,34.9386701 280.39041,35.2915013 279.230151,35.2915013 C277.183138,35.2915013 275.659294,34.2702545 275.251761,32.0449558 L284.428332,32.0449558 C284.515761,31.6740468 284.617527,30.8552416 284.617527,30.0365922 Z" id="Fill-32" fill="#000000"></path>
        </g>
    </g>
</svg>